<svg width="16" height="20" viewBox="0 0 16 20" fill="none" xmlns="http://www.w3.org/2000/svg">
<path d="M8 10C7.01109 10 6.04439 9.70676 5.22215 9.15735C4.3999 8.60794 3.75904 7.82705 3.3806 6.91342C3.00216 5.99979 2.90315 4.99446 3.09607 4.02455C3.289 3.05465 3.7652 2.16373 4.46447 1.46447C5.16373 0.765206 6.05464 0.289002 7.02455 0.0960758C7.99445 -0.0968503 8.99979 0.00216642 9.91342 0.380605C10.827 0.759043 11.6079 1.39991 12.1573 2.22215C12.7068 3.0444 13 4.0111 13 5C12.9987 6.32568 12.4715 7.59668 11.5341 8.53407C10.5967 9.47147 9.32568 9.99868 8 10ZM8 1.66667C7.34073 1.66667 6.69626 1.86217 6.1481 2.22844C5.59994 2.59471 5.17269 3.1153 4.9204 3.72439C4.66811 4.33348 4.6021 5.0037 4.73072 5.6503C4.85933 6.29691 5.1768 6.89085 5.64298 7.35703C6.10915 7.8232 6.7031 8.14067 7.3497 8.26929C7.9963 8.3979 8.66652 8.33189 9.27561 8.0796C9.8847 7.82731 10.4053 7.40007 10.7716 6.8519C11.1378 6.30374 11.3333 5.65927 11.3333 5C11.3333 4.11595 10.9821 3.2681 10.357 2.64298C9.7319 2.01786 8.88405 1.66667 8 1.66667Z" fill="#B22222"/>
<path fill-rule="evenodd" clip-rule="evenodd" d="M0.5 15.7975C0.501323 14.7023 0.936959 13.6524 1.71135 12.878C2.48575 12.1036 3.53567 11.668 4.63083 11.6667H11.3692C12.4643 11.668 13.5143 12.1036 14.2886 12.878C15.063 13.6524 15.4987 14.7023 15.5 15.7975V20H2.16667H0.5V15.7975ZM13.1109 14.0558C13.5728 14.5178 13.8327 15.1442 13.8333 15.7975V18.37H2.16667V15.7975C2.16733 15.1442 2.42716 14.5178 2.88914 14.0558C3.35111 13.5938 3.9775 13.334 4.63083 13.3333H11.3692C12.0225 13.334 12.6489 13.5938 13.1109 14.0558Z" fill="#B22222"/>
<path d="M8 1.66667C7.34073 1.66667 6.69626 1.86217 6.1481 2.22844C5.59994 2.59471 5.17269 3.1153 4.9204 3.72439C4.66811 4.33348 4.6021 5.0037 4.73072 5.6503C4.85933 6.29691 5.1768 6.89085 5.64298 7.35703C6.10915 7.8232 6.7031 8.14067 7.3497 8.26929C7.9963 8.3979 8.66652 8.33189 9.27561 8.0796C9.8847 7.82731 10.4053 7.40007 10.7716 6.8519C11.1378 6.30374 11.3333 5.65927 11.3333 5C11.3333 4.11595 10.9821 3.2681 10.357 2.64298C9.7319 2.01786 8.88405 1.66667 8 1.66667Z" fill="#F9F9F9"/>
<path d="M13.8333 15.7975C13.8327 15.1442 13.5728 14.5178 13.1109 14.0558C12.6489 13.5938 12.0225 13.334 11.3692 13.3333H4.63083C3.9775 13.334 3.35111 13.5938 2.88914 14.0558C2.42716 14.5178 2.16733 15.1442 2.16667 15.7975V18.37H13.8333V15.7975Z" fill="#F9F9F9"/>
</svg>
