<svg viewBox="0 0 16 16" xmlns="http://www.w3.org/2000/svg">
    <path class="header__management-svgOut" d="M12.6667 0H3.33333C1.49333 0 0 1.49333 0 3.33333V12.6667C0 14.5067 1.49333 16 3.33333 16H12.6667C14.5067 16 16 14.5067 16 12.6667V3.33333C16 1.49333 14.5067 0 12.6667 0ZM14.6667 3.33333V7.33333H8.66667V1.33333H12.6667C13.7667 1.33333 14.6667 2.23333 14.6667 3.33333ZM3.33333 1.33333H7.33333V7.33333H1.33333V3.33333C1.33333 2.23333 2.23333 1.33333 3.33333 1.33333ZM1.33333 12.6667V8.66667H7.33333V14.6667H3.33333C2.23333 14.6667 1.33333 13.7667 1.33333 12.6667ZM12.6667 14.6667H8.66667V8.66667H14.6667V12.6667C14.6667 13.7667 13.7667 14.6667 12.6667 14.6667Z"/>
    <path class="header__management-svgIn" d="M1.33333 12.6667V8.66667H7.33333V14.6667H3.33333C2.23333 14.6667 1.33333 13.7667 1.33333 12.6667Z"/>
    <path class="header__management-svgIn" d="M3.33333 1.33333H7.33333V7.33333H1.33333V3.33333C1.33333 2.23333 2.23333 1.33333 3.33333 1.33333Z"/>
    <path class="header__management-svgIn" d="M14.6667 3.33333V7.33333H8.66667V1.33333H12.6667C13.7667 1.33333 14.6667 2.23333 14.6667 3.33333Z"/>
    <path class="header__management-svgIn" d="M12.6667 14.6667H8.66667V8.66667H14.6667V12.6667C14.6667 13.7667 13.7667 14.6667 12.6667 14.6667Z"/>
</svg>