<svg width="7" height="6" viewBox="0 0 7 6" fill="none" xmlns="http://www.w3.org/2000/svg">
<path fill-rule="evenodd" clip-rule="evenodd" d="M6.87138 0.883005C6.90462 0.912109 6.93174 0.947531 6.95117 0.987212C6.9706 1.02689 6.98195 1.07004 6.98456 1.11415C6.98716 1.15825 6.98097 1.20244 6.96635 1.24413C6.95173 1.28582 6.92896 1.32419 6.89938 1.35701L3.39471 5.24667C3.36498 5.27961 3.32898 5.30629 3.28881 5.32513C3.24864 5.34397 3.20511 5.35461 3.16077 5.35641C3.11644 5.35821 3.07219 5.35114 3.03063 5.33562C2.98906 5.32009 2.95101 5.29643 2.91871 5.26601L0.890709 3.35701C0.829869 3.29891 0.793032 3.22011 0.787477 3.13618C0.781922 3.05224 0.808054 2.96927 0.860709 2.90367C0.889131 2.86811 0.924484 2.83869 0.964622 2.8172C1.00476 2.79572 1.04885 2.78261 1.0942 2.77868C1.13956 2.77476 1.18524 2.78009 1.22848 2.79435C1.27171 2.80862 1.3116 2.83152 1.34571 2.86167L2.91904 4.277C2.98474 4.33613 3.07122 4.36675 3.15948 4.36212C3.24775 4.3575 3.33056 4.31801 3.38971 4.25234L6.40404 0.910005C6.46272 0.844951 6.54465 0.805611 6.6321 0.800496C6.71956 0.795381 6.80552 0.824901 6.87138 0.882672V0.883005Z" fill="#B22222"/>
</svg>
