<svg width="20" height="19" viewBox="0 0 20 19" fill="none" xmlns="http://www.w3.org/2000/svg">
<path d="M14.5833 0.597504C13.645 0.612099 12.7271 0.874048 11.9223 1.3569C11.1176 1.83974 10.4545 2.52639 10 3.3475C9.54554 2.52639 8.88245 1.83974 8.0777 1.3569C7.27296 0.874048 6.35505 0.612099 5.41667 0.597504C3.92079 0.662496 2.51143 1.31688 1.49649 2.4177C0.481555 3.51851 -0.0564528 4.97627 5.93252e-06 6.4725C5.93252e-06 10.2617 3.98834 14.4 7.33334 17.2058C8.08019 17.8334 9.02447 18.1775 10 18.1775C10.9755 18.1775 11.9198 17.8334 12.6667 17.2058C16.0117 14.4 20 10.2617 20 6.4725C20.0565 4.97627 19.5185 3.51851 18.5035 2.4177C17.4886 1.31688 16.0792 0.662496 14.5833 0.597504ZM11.5958 15.9308C11.1492 16.307 10.584 16.5133 10 16.5133C9.41605 16.5133 8.85085 16.307 8.40417 15.9308C4.12251 12.3383 1.66667 8.89167 1.66667 6.4725C1.60971 5.4181 1.97198 4.38395 2.67448 3.59559C3.37697 2.80723 4.3627 2.32863 5.41667 2.26417C6.47064 2.32863 7.45637 2.80723 8.15887 3.59559C8.86137 4.38395 9.22364 5.4181 9.16667 6.4725C9.16667 6.69352 9.25447 6.90548 9.41075 7.06176C9.56703 7.21804 9.77899 7.30584 10 7.30584C10.221 7.30584 10.433 7.21804 10.5893 7.06176C10.7455 6.90548 10.8333 6.69352 10.8333 6.4725C10.7764 5.4181 11.1386 4.38395 11.8411 3.59559C12.5436 2.80723 13.5294 2.32863 14.5833 2.26417C15.6373 2.32863 16.623 2.80723 17.3255 3.59559C18.028 4.38395 18.3903 5.4181 18.3333 6.4725C18.3333 8.89167 15.8775 12.3383 11.5958 15.9275V15.9308Z" fill="#B22222"/>
<path d="M11.5958 15.9308C11.1492 16.307 10.584 16.5133 10 16.5133C9.41605 16.5133 8.85085 16.307 8.40417 15.9308C4.12251 12.3383 1.66667 8.89167 1.66667 6.4725C1.60971 5.4181 1.97198 4.38395 2.67448 3.59559C3.37697 2.80723 4.3627 2.32863 5.41667 2.26417C6.47064 2.32863 7.45637 2.80723 8.15887 3.59559C8.86137 4.38395 9.22364 5.4181 9.16667 6.4725C9.16667 6.69352 9.25447 6.90548 9.41075 7.06176C9.56703 7.21804 9.77899 7.30584 10 7.30584C10.221 7.30584 10.433 7.21804 10.5893 7.06176C10.7455 6.90548 10.8333 6.69352 10.8333 6.4725C10.7764 5.4181 11.1386 4.38395 11.8411 3.59559C12.5436 2.80723 13.5294 2.32863 14.5833 2.26417C15.6373 2.32863 16.623 2.80723 17.3255 3.59559C18.028 4.38395 18.3903 5.4181 18.3333 6.4725C18.3333 8.89167 15.8775 12.3383 11.5958 15.9275V15.9308Z" fill="#F9F9F9"/>
</svg>
