<svg viewBox="0 0 140 21" fill="none" xmlns="http://www.w3.org/2000/svg">
    <div class="logo-dress">
        <path d="M66.2588 16.6164H63.7825V0H66.2588V16.6164Z"/>
        <path d="M69.8963 16.6164V4.85996H71.2502C71.5664 4.85996 71.7631 5.01039 71.8403 5.31124L72.0023 6.43366C72.4343 5.91681 72.9126 5.49639 73.4371 5.17239C73.9694 4.84068 74.5904 4.67482 75.3001 4.67482C76.0793 4.67482 76.7118 4.89082 77.1978 5.32282C77.6838 5.7471 78.0387 6.32566 78.2624 7.05852C78.4321 6.64195 78.652 6.28324 78.922 5.98238C79.192 5.68153 79.4928 5.43467 79.8245 5.24182C80.1562 5.04896 80.5072 4.90625 80.8775 4.81368C81.2555 4.72111 81.6374 4.67482 82.0231 4.67482C82.6479 4.67482 83.2034 4.77511 83.6894 4.97568C84.1831 5.16853 84.5996 5.45396 84.939 5.83195C85.2785 6.20995 85.5369 6.67666 85.7143 7.23209C85.8918 7.78751 85.9805 8.42008 85.9805 9.12979V16.6164H83.7125V9.12979C83.7125 8.25036 83.5196 7.58694 83.1339 7.13952C82.7559 6.69209 82.2005 6.46838 81.4676 6.46838C81.1436 6.46838 80.8351 6.52623 80.5419 6.64195C80.2488 6.74995 79.9904 6.9158 79.7667 7.13952C79.5507 7.36323 79.3771 7.64094 79.246 7.97265C79.1225 8.30436 79.0608 8.69007 79.0608 9.12979V16.6164H76.7928V9.12979C76.7928 8.21951 76.6116 7.54837 76.249 7.11637C75.8864 6.68438 75.3541 6.46838 74.6521 6.46838C74.1661 6.46838 73.7149 6.59566 73.2983 6.85023C72.8817 7.1048 72.4999 7.45194 72.1527 7.89165V16.6164H69.8963Z"/>
        <path d="M91.2726 13.7236C91.6428 14.2096 92.0401 14.549 92.4644 14.7419C92.8964 14.9347 93.3785 15.0312 93.9108 15.0312C94.9445 15.0312 95.7429 14.6609 96.3061 13.9203C96.8769 13.172 97.1624 12.0843 97.1624 10.6572C97.1624 9.90892 97.0968 9.2725 96.9656 8.74793C96.8422 8.21565 96.6571 7.78365 96.4102 7.45194C96.1711 7.11252 95.8741 6.86566 95.5192 6.71138C95.1644 6.54938 94.7632 6.46838 94.3158 6.46838C93.6601 6.46838 93.0892 6.61495 92.6033 6.90809C92.125 7.20123 91.6814 7.6178 91.2726 8.15779V13.7236ZM91.1568 6.61881C91.4037 6.32566 91.666 6.05952 91.9437 5.82038C92.2291 5.57353 92.5338 5.36524 92.8578 5.19553C93.1818 5.0181 93.5251 4.88311 93.8877 4.79053C94.258 4.69025 94.6514 4.64011 95.068 4.64011C95.7391 4.64011 96.3447 4.77125 96.8846 5.03353C97.4324 5.29582 97.8991 5.68153 98.2848 6.19067C98.6705 6.6998 98.9675 7.32851 99.1758 8.07679C99.3918 8.82507 99.4998 9.68521 99.4998 10.6572C99.4998 11.5289 99.3802 12.3389 99.1411 13.0872C98.9096 13.8277 98.5741 14.4719 98.1344 15.0196C97.7024 15.5673 97.1701 15.9993 96.5375 16.3156C95.9127 16.6242 95.2068 16.7784 94.4199 16.7784C93.718 16.7784 93.1163 16.6627 92.6148 16.4313C92.1134 16.1999 91.666 15.8759 91.2726 15.4593V20.5623H89.0161V4.85996H90.37C90.6863 4.85996 90.883 5.01039 90.9601 5.31124L91.1568 6.61881Z"/>
        <path d="M104.163 7.11637C104.541 6.34495 104.996 5.73938 105.528 5.29967C106.061 4.85996 106.701 4.64011 107.449 4.64011C107.704 4.64011 107.943 4.67096 108.167 4.73268C108.398 4.78668 108.599 4.87153 108.768 4.98725L108.618 6.68823C108.564 6.89652 108.437 7.00066 108.236 7.00066C108.128 7.00066 107.966 6.98137 107.75 6.9428C107.534 6.89652 107.303 6.87337 107.056 6.87337C106.693 6.87337 106.373 6.92737 106.095 7.03537C105.818 7.13566 105.567 7.28994 105.343 7.49823C105.127 7.6988 104.934 7.94951 104.765 8.25036C104.595 8.5435 104.437 8.87907 104.29 9.25707V16.6164H102.034V4.85996H103.33C103.577 4.85996 103.743 4.90625 103.827 4.99882C103.92 5.08368 103.986 5.23796 104.024 5.46167L104.163 7.11637Z"/>
        <path d="M117.867 9.43064C117.867 8.98322 117.802 8.5705 117.67 8.19251C117.547 7.81451 117.362 7.48666 117.115 7.20894C116.868 6.93123 116.567 6.71523 116.212 6.56095C115.858 6.40666 115.449 6.32952 114.986 6.32952C114.037 6.32952 113.289 6.60338 112.741 7.15109C112.201 7.6988 111.858 8.45865 111.711 9.43064H117.867ZM119.73 14.9386C119.452 15.2626 119.132 15.5442 118.77 15.7833C118.407 16.0147 118.021 16.2037 117.613 16.3503C117.204 16.4969 116.779 16.6049 116.34 16.6743C115.908 16.7437 115.48 16.7784 115.055 16.7784C114.245 16.7784 113.493 16.6434 112.799 16.3734C112.112 16.0957 111.514 15.6946 111.005 15.17C110.504 14.6377 110.11 13.982 109.825 13.2029C109.547 12.416 109.408 11.5135 109.408 10.4952C109.408 9.6775 109.536 8.91764 109.79 8.21565C110.045 7.50594 110.407 6.8888 110.878 6.36424C111.356 5.83967 111.939 5.42696 112.625 5.1261C113.312 4.82525 114.083 4.67482 114.94 4.67482C115.657 4.67482 116.317 4.79439 116.918 5.03353C117.528 5.26496 118.052 5.60438 118.492 6.05181C118.932 6.49924 119.275 7.0508 119.522 7.70651C119.776 8.36222 119.904 9.1105 119.904 9.95135C119.904 10.2985 119.865 10.5338 119.788 10.6572C119.711 10.7729 119.568 10.8308 119.36 10.8308H111.653C111.676 11.5328 111.777 12.146 111.954 12.6706C112.132 13.1875 112.375 13.6195 112.683 13.9666C112.999 14.3137 113.374 14.5722 113.806 14.7419C114.238 14.9116 114.72 14.9965 115.252 14.9965C115.753 14.9965 116.185 14.9386 116.548 14.8229C116.918 14.7072 117.235 14.5837 117.497 14.4526C117.767 14.3137 117.991 14.1865 118.168 14.0707C118.353 13.955 118.515 13.8972 118.654 13.8972C118.839 13.8972 118.982 13.9666 119.082 14.1055L119.73 14.9386Z"/>
        <path d="M129.26 6.88495C129.198 6.98523 129.133 7.05852 129.063 7.1048C128.994 7.14337 128.905 7.16266 128.797 7.16266C128.674 7.16266 128.535 7.12023 128.381 7.03537C128.234 6.95052 128.053 6.85795 127.837 6.75766C127.629 6.65738 127.382 6.56481 127.096 6.47995C126.811 6.39509 126.471 6.35266 126.078 6.35266C125.754 6.35266 125.457 6.39509 125.187 6.47995C124.925 6.55709 124.701 6.66895 124.516 6.81552C124.331 6.95437 124.188 7.12409 124.088 7.32466C123.987 7.51751 123.937 7.7258 123.937 7.94951C123.937 8.24265 124.022 8.48565 124.192 8.6785C124.369 8.87136 124.597 9.03722 124.875 9.17607C125.16 9.31493 125.48 9.44221 125.835 9.55793C126.198 9.66593 126.564 9.78164 126.934 9.90506C127.312 10.0285 127.679 10.1712 128.034 10.3332C128.396 10.4875 128.716 10.6842 128.994 10.9233C129.279 11.1548 129.507 11.4363 129.677 11.7681C129.854 12.0998 129.943 12.5048 129.943 12.983C129.943 13.5308 129.843 14.0399 129.642 14.5105C129.449 14.9733 129.16 15.3745 128.774 15.7139C128.396 16.0533 127.926 16.3194 127.362 16.5123C126.799 16.7052 126.155 16.8016 125.43 16.8016C124.62 16.8016 123.872 16.6666 123.185 16.3966C122.499 16.1266 121.924 15.7833 121.461 15.3667L121.993 14.4989C122.055 14.3909 122.132 14.3099 122.225 14.2559C122.317 14.1942 122.441 14.1633 122.595 14.1633C122.742 14.1633 122.892 14.2173 123.046 14.3253C123.201 14.4333 123.386 14.5529 123.602 14.684C123.818 14.8075 124.08 14.9232 124.389 15.0312C124.697 15.1315 125.083 15.1816 125.546 15.1816C125.931 15.1816 126.267 15.1353 126.552 15.0427C126.838 14.9425 127.073 14.8113 127.258 14.6493C127.451 14.4796 127.594 14.2867 127.686 14.0707C127.779 13.8547 127.825 13.6272 127.825 13.388C127.825 13.0795 127.737 12.8249 127.559 12.6243C127.389 12.416 127.162 12.2386 126.876 12.092C126.599 11.9455 126.279 11.8182 125.916 11.7102C125.553 11.6022 125.183 11.4865 124.805 11.3631C124.427 11.2396 124.057 11.0969 123.694 10.9349C123.332 10.7729 123.008 10.5685 122.722 10.3216C122.445 10.0748 122.217 9.77392 122.04 9.41907C121.87 9.06421 121.785 8.63222 121.785 8.12308C121.785 7.66794 121.878 7.23209 122.063 6.81552C122.256 6.39895 122.53 6.03252 122.884 5.71624C123.247 5.39996 123.691 5.14925 124.215 4.9641C124.747 4.77125 125.353 4.67482 126.032 4.67482C126.811 4.67482 127.513 4.79825 128.138 5.0451C128.77 5.29196 129.31 5.63138 129.758 6.06338L129.26 6.88495Z"/>
        <path d="M139.317 6.88495C139.256 6.98523 139.19 7.05852 139.121 7.1048C139.051 7.14337 138.962 7.16266 138.854 7.16266C138.731 7.16266 138.592 7.12023 138.438 7.03537C138.291 6.95052 138.11 6.85795 137.894 6.75766C137.686 6.65738 137.439 6.56481 137.153 6.47995C136.868 6.39509 136.529 6.35266 136.135 6.35266C135.811 6.35266 135.514 6.39509 135.244 6.47995C134.982 6.55709 134.758 6.66895 134.573 6.81552C134.388 6.95437 134.245 7.12409 134.145 7.32466C134.045 7.51751 133.994 7.7258 133.994 7.94951C133.994 8.24265 134.079 8.48565 134.249 8.6785C134.426 8.87136 134.654 9.03722 134.932 9.17607C135.217 9.31493 135.537 9.44221 135.892 9.55793C136.255 9.66593 136.621 9.78164 136.991 9.90506C137.369 10.0285 137.736 10.1712 138.091 10.3332C138.453 10.4875 138.773 10.6842 139.051 10.9233C139.337 11.1548 139.564 11.4363 139.734 11.7681C139.911 12.0998 140 12.5048 140 12.983C140 13.5308 139.9 14.0399 139.699 14.5105C139.506 14.9733 139.217 15.3745 138.831 15.7139C138.453 16.0533 137.983 16.3194 137.42 16.5123C136.856 16.7052 136.212 16.8016 135.487 16.8016C134.677 16.8016 133.929 16.6666 133.242 16.3966C132.556 16.1266 131.981 15.7833 131.518 15.3667L132.05 14.4989C132.112 14.3909 132.189 14.3099 132.282 14.2559C132.374 14.1942 132.498 14.1633 132.652 14.1633C132.799 14.1633 132.949 14.2173 133.103 14.3253C133.258 14.4333 133.443 14.5529 133.659 14.684C133.875 14.8075 134.137 14.9232 134.446 15.0312C134.754 15.1315 135.14 15.1816 135.603 15.1816C135.989 15.1816 136.324 15.1353 136.61 15.0427C136.895 14.9425 137.13 14.8113 137.315 14.6493C137.508 14.4796 137.651 14.2867 137.744 14.0707C137.836 13.8547 137.882 13.6272 137.882 13.388C137.882 13.0795 137.794 12.8249 137.616 12.6243C137.447 12.416 137.219 12.2386 136.934 12.092C136.656 11.9455 136.336 11.8182 135.973 11.7102C135.611 11.6022 135.24 11.4865 134.862 11.3631C134.484 11.2396 134.114 11.0969 133.751 10.9349C133.389 10.7729 133.065 10.5685 132.779 10.3216C132.502 10.0748 132.274 9.77392 132.097 9.41907C131.927 9.06421 131.842 8.63222 131.842 8.12308C131.842 7.66794 131.935 7.23209 132.12 6.81552C132.313 6.39895 132.587 6.03252 132.941 5.71624C133.304 5.39996 133.748 5.14925 134.272 4.9641C134.804 4.77125 135.41 4.67482 136.089 4.67482C136.868 4.67482 137.57 4.79825 138.195 5.0451C138.827 5.29196 139.367 5.63138 139.815 6.06338L139.317 6.88495Z"/>
    </div>
    <div class="logo-impress">
        <path d="M14.4989 8.30822C14.4989 9.55021 14.2983 10.6803 13.8972 11.6986C13.5038 12.7169 12.9445 13.5925 12.2193 14.3253C11.4942 15.0505 10.6263 15.6136 9.61578 16.0147C8.60522 16.4159 7.4828 16.6164 6.24852 16.6164H0V0H6.24852C7.4828 0 8.60522 0.20057 9.61578 0.60171C10.6263 1.00285 11.4942 1.56985 12.2193 2.3027C12.9445 3.02783 13.5038 3.9034 13.8972 4.92939C14.2983 5.94767 14.4989 7.07394 14.4989 8.30822ZM11.9763 8.30822C11.9763 7.3208 11.8413 6.43752 11.5713 5.65838C11.3013 4.87153 10.9156 4.20811 10.4142 3.66811C9.92049 3.1204 9.31878 2.70384 8.60908 2.41841C7.90708 2.13298 7.12023 1.99027 6.24852 1.99027H2.47627V14.6262H6.24852C7.12023 14.6262 7.90708 14.4835 8.60908 14.198C9.31878 13.9126 9.92049 13.4999 10.4142 12.9599C10.9156 12.4122 11.3013 11.7488 11.5713 10.9696C11.8413 10.1905 11.9763 9.30335 11.9763 8.30822Z"/>
        <path d="M19.0459 7.11637C19.4239 6.34495 19.879 5.73938 20.4113 5.29967C20.9436 4.85996 21.5839 4.64011 22.3321 4.64011C22.5867 4.64011 22.8258 4.67096 23.0496 4.73268C23.281 4.78668 23.4816 4.87153 23.6513 4.98725L23.5008 6.68823C23.4468 6.89652 23.3196 7.00066 23.119 7.00066C23.011 7.00066 22.849 6.98137 22.633 6.9428C22.417 6.89652 22.1856 6.87337 21.9387 6.87337C21.5761 6.87337 21.256 6.92737 20.9783 7.03537C20.7006 7.13566 20.4499 7.28994 20.2262 7.49823C20.0102 7.6988 19.8173 7.94951 19.6476 8.25036C19.4779 8.5435 19.3197 8.87907 19.1732 9.25707V16.6164H16.9168V4.85996H18.2127C18.4596 4.85996 18.6255 4.90625 18.7103 4.99882C18.8029 5.08368 18.8685 5.23796 18.907 5.46167L19.0459 7.11637Z"/>
        <path d="M32.75 9.43064C32.75 8.98322 32.6844 8.5705 32.5532 8.19251C32.4298 7.81451 32.2447 7.48666 31.9978 7.20894C31.751 6.93123 31.4501 6.71523 31.0953 6.56095C30.7404 6.40666 30.3316 6.32952 29.8687 6.32952C28.9198 6.32952 28.1716 6.60338 27.6239 7.15109C27.0839 7.6988 26.7406 8.45865 26.594 9.43064H32.75ZM34.6129 14.9386C34.3352 15.2626 34.0151 15.5442 33.6525 15.7833C33.29 16.0147 32.9042 16.2037 32.4954 16.3503C32.0865 16.4969 31.6623 16.6049 31.2225 16.6743C30.7905 16.7437 30.3624 16.7784 29.9381 16.7784C29.1281 16.7784 28.376 16.6434 27.6817 16.3734C26.9951 16.0957 26.3973 15.6946 25.8882 15.17C25.3867 14.6377 24.9933 13.982 24.7079 13.2029C24.4302 12.416 24.2913 11.5135 24.2913 10.4952C24.2913 9.6775 24.4186 8.91764 24.6732 8.21565C24.9277 7.50594 25.2903 6.8888 25.7609 6.36424C26.2392 5.83967 26.8216 5.42696 27.5081 5.1261C28.1947 4.82525 28.9661 4.67482 29.8224 4.67482C30.5398 4.67482 31.1994 4.79439 31.8011 5.03353C32.4105 5.26496 32.9351 5.60438 33.3748 6.05181C33.8145 6.49924 34.1578 7.0508 34.4047 7.70651C34.6592 8.36222 34.7865 9.1105 34.7865 9.95135C34.7865 10.2985 34.7479 10.5338 34.6708 10.6572C34.5937 10.7729 34.4509 10.8308 34.2427 10.8308H26.5362C26.5593 11.5328 26.6596 12.146 26.837 12.6706C27.0144 13.1875 27.2574 13.6195 27.566 13.9666C27.8823 14.3137 28.2564 14.5722 28.6884 14.7419C29.1204 14.9116 29.6026 14.9965 30.1348 14.9965C30.6363 14.9965 31.0683 14.9386 31.4308 14.8229C31.8011 14.7072 32.1174 14.5837 32.3797 14.4526C32.6497 14.3137 32.8734 14.1865 33.0508 14.0707C33.236 13.955 33.398 13.8972 33.5368 13.8972C33.722 13.8972 33.8647 13.9666 33.965 14.1055L34.6129 14.9386Z"/>
        <path d="M44.143 6.88495C44.0813 6.98523 44.0157 7.05852 43.9463 7.1048C43.8769 7.14337 43.7882 7.16266 43.6802 7.16266C43.5567 7.16266 43.4179 7.12023 43.2636 7.03537C43.117 6.95052 42.9358 6.85795 42.7198 6.75766C42.5115 6.65738 42.2646 6.56481 41.9792 6.47995C41.6938 6.39509 41.3543 6.35266 40.9609 6.35266C40.6369 6.35266 40.3399 6.39509 40.0699 6.47995C39.8076 6.55709 39.5839 6.66895 39.3988 6.81552C39.2136 6.95437 39.0709 7.12409 38.9706 7.32466C38.8704 7.51751 38.8202 7.7258 38.8202 7.94951C38.8202 8.24265 38.9051 8.48565 39.0748 8.6785C39.2522 8.87136 39.4798 9.03722 39.7575 9.17607C40.0429 9.31493 40.3631 9.44221 40.7179 9.55793C41.0805 9.66593 41.4469 9.78164 41.8172 9.90506C42.1952 10.0285 42.5616 10.1712 42.9165 10.3332C43.279 10.4875 43.5992 10.6842 43.8769 10.9233C44.1623 11.1548 44.3899 11.4363 44.5596 11.7681C44.737 12.0998 44.8257 12.5048 44.8257 12.983C44.8257 13.5308 44.7255 14.0399 44.5249 14.5105C44.332 14.9733 44.0427 15.3745 43.657 15.7139C43.279 16.0533 42.8085 16.3194 42.2453 16.5123C41.6822 16.7052 41.038 16.8016 40.3129 16.8016C39.5029 16.8016 38.7546 16.6666 38.0681 16.3966C37.3815 16.1266 36.8068 15.7833 36.3439 15.3667L36.8762 14.4989C36.9379 14.3909 37.0151 14.3099 37.1077 14.2559C37.2002 14.1942 37.3237 14.1633 37.4779 14.1633C37.6245 14.1633 37.7749 14.2173 37.9292 14.3253C38.0835 14.4333 38.2686 14.5529 38.4846 14.684C38.7006 14.8075 38.9629 14.9232 39.2715 15.0312C39.5801 15.1315 39.9658 15.1816 40.4286 15.1816C40.8143 15.1816 41.1499 15.1353 41.4353 15.0427C41.7208 14.9425 41.956 14.8113 42.1412 14.6493C42.334 14.4796 42.4768 14.2867 42.5693 14.0707C42.6619 13.8547 42.7082 13.6272 42.7082 13.388C42.7082 13.0795 42.6195 12.8249 42.442 12.6243C42.2723 12.416 42.0448 12.2386 41.7593 12.092C41.4816 11.9455 41.1615 11.8182 40.7989 11.7102C40.4363 11.6022 40.0661 11.4865 39.6881 11.3631C39.3101 11.2396 38.9398 11.0969 38.5772 10.9349C38.2146 10.7729 37.8906 10.5685 37.6052 10.3216C37.3275 10.0748 37.0999 9.77392 36.9225 9.41907C36.7528 9.06421 36.6679 8.63222 36.6679 8.12308C36.6679 7.66794 36.7605 7.23209 36.9457 6.81552C37.1385 6.39895 37.4124 6.03252 37.7672 5.71624C38.1298 5.39996 38.5734 5.14925 39.0979 4.9641C39.6302 4.77125 40.2358 4.67482 40.9146 4.67482C41.6938 4.67482 42.3958 4.79825 43.0206 5.0451C43.6532 5.29196 44.1932 5.63138 44.6406 6.06338L44.143 6.88495Z"/>
        <path d="M54.2001 6.88495C54.1384 6.98523 54.0729 7.05852 54.0034 7.1048C53.934 7.14337 53.8453 7.16266 53.7373 7.16266C53.6139 7.16266 53.475 7.12023 53.3207 7.03537C53.1742 6.95052 52.9929 6.85795 52.7769 6.75766C52.5686 6.65738 52.3217 6.56481 52.0363 6.47995C51.7509 6.39509 51.4115 6.35266 51.018 6.35266C50.694 6.35266 50.397 6.39509 50.127 6.47995C49.8648 6.55709 49.641 6.66895 49.4559 6.81552C49.2708 6.95437 49.128 7.12409 49.0278 7.32466C48.9275 7.51751 48.8773 7.7258 48.8773 7.94951C48.8773 8.24265 48.9622 8.48565 49.1319 8.6785C49.3093 8.87136 49.5369 9.03722 49.8146 9.17607C50.1 9.31493 50.4202 9.44221 50.775 9.55793C51.1376 9.66593 51.504 9.78164 51.8743 9.90506C52.2523 10.0285 52.6187 10.1712 52.9736 10.3332C53.3362 10.4875 53.6563 10.6842 53.934 10.9233C54.2194 11.1548 54.447 11.4363 54.6167 11.7681C54.7941 12.0998 54.8829 12.5048 54.8829 12.983C54.8829 13.5308 54.7826 14.0399 54.582 14.5105C54.3891 14.9733 54.0999 15.3745 53.7141 15.7139C53.3362 16.0533 52.8656 16.3194 52.3024 16.5123C51.7393 16.7052 51.0952 16.8016 50.37 16.8016C49.56 16.8016 48.8118 16.6666 48.1252 16.3966C47.4386 16.1266 46.8639 15.7833 46.4011 15.3667L46.9333 14.4989C46.9951 14.3909 47.0722 14.3099 47.1648 14.2559C47.2573 14.1942 47.3808 14.1633 47.5351 14.1633C47.6816 14.1633 47.8321 14.2173 47.9863 14.3253C48.1406 14.4333 48.3258 14.5529 48.5418 14.684C48.7578 14.8075 49.02 14.9232 49.3286 15.0312C49.6372 15.1315 50.0229 15.1816 50.4857 15.1816C50.8715 15.1816 51.207 15.1353 51.4925 15.0427C51.7779 14.9425 52.0132 14.8113 52.1983 14.6493C52.3912 14.4796 52.5339 14.2867 52.6264 14.0707C52.719 13.8547 52.7653 13.6272 52.7653 13.388C52.7653 13.0795 52.6766 12.8249 52.4992 12.6243C52.3294 12.416 52.1019 12.2386 51.8165 12.092C51.5387 11.9455 51.2186 11.8182 50.856 11.7102C50.4935 11.6022 50.1232 11.4865 49.7452 11.3631C49.3672 11.2396 48.9969 11.0969 48.6343 10.9349C48.2718 10.7729 47.9478 10.5685 47.6623 10.3216C47.3846 10.0748 47.1571 9.77392 46.9796 9.41907C46.8099 9.06421 46.7251 8.63222 46.7251 8.12308C46.7251 7.66794 46.8176 7.23209 47.0028 6.81552C47.1956 6.39895 47.4695 6.03252 47.8243 5.71624C48.1869 5.39996 48.6305 5.14925 49.155 4.9641C49.6873 4.77125 50.2929 4.67482 50.9717 4.67482C51.7509 4.67482 52.4529 4.79825 53.0777 5.0451C53.7103 5.29196 54.2503 5.63138 54.6977 6.06338L54.2001 6.88495Z"/>
    </div>
</svg>