<svg width="24" height="24" viewBox="0 0 24 24" fill="none" xmlns="http://www.w3.org/2000/svg">
<path fill-rule="evenodd" clip-rule="evenodd" d="M0 11.52V12.48C0 17.9107 0.00223091 20.6266 1.6867 22.3133C3.37116 24 6.0893 24 11.52 24H12.48C17.9107 24 20.6266 23.9978 22.3133 22.3133C24 20.6288 24 17.9107 24 12.48V11.52C24 6.0893 23.9978 3.3734 22.3133 1.6867C20.6288 0 17.9107 0 12.48 0H11.52C6.0893 0 3.37339 0.0022325 1.6867 1.6867C0 3.37116 0 6.08931 0 11.52ZM12.6218 8.4134C11.341 8.94624 8.78177 10.0487 4.944 11.7209C4.32037 11.9673 3.99405 12.2095 3.96503 12.4476C3.91491 12.8486 4.41669 13.0064 5.09952 13.2212C5.19236 13.2504 5.28856 13.2807 5.38717 13.3127C6.05917 13.5315 6.96335 13.7872 7.43442 13.7972C7.86009 13.8069 8.336 13.6309 8.86214 13.2692C12.4484 10.8491 14.2995 9.62568 14.4156 9.59889C14.4599 9.58136 14.5077 9.57465 14.5551 9.57931C14.6024 9.58397 14.648 9.59986 14.688 9.62568C14.7155 9.65698 14.7354 9.69424 14.746 9.73454C14.7567 9.77483 14.7578 9.81705 14.7494 9.85786C14.6993 10.0694 12.7375 11.894 11.7166 12.8434C11.3958 13.1418 11.1679 13.3537 11.1215 13.402C11.0184 13.509 10.9133 13.6103 10.8123 13.7076C10.1873 14.3097 9.71842 14.7613 10.838 15.4984C11.3395 15.8311 11.7476 16.1087 12.1489 16.3815C12.6469 16.7202 13.1342 17.0516 13.776 17.472C13.93 17.573 14.077 17.678 14.2203 17.7802C14.7656 18.1693 15.2556 18.519 15.8612 18.4633C16.214 18.4309 16.5767 18.0994 16.7609 17.1126C17.1974 14.7818 18.0547 9.72949 18.2534 7.64763C18.2652 7.47431 18.2577 7.30022 18.2311 7.12856C18.215 6.99067 18.1482 6.86371 18.0435 6.77247C17.894 6.66877 17.7153 6.61522 17.5334 6.61954C17.0378 6.62735 16.2787 6.89191 12.6218 8.4134Z" fill="white"/>
</svg>
