<svg width="24" height="24" viewBox="0 0 24 24" fill="none" xmlns="http://www.w3.org/2000/svg">
<path fill-rule="evenodd" clip-rule="evenodd" d="M1.6867 1.6867C0 3.37116 0 6.0893 0 11.52V12.48C0 17.9107 0.0022325 20.6266 1.6867 22.3133C3.37116 24 6.0893 24 11.52 24H12.48C17.9107 24 20.6266 23.9978 22.3133 22.3133C24 20.6288 24 17.9107 24 12.48V11.52C24 6.0893 23.9978 3.3734 22.3133 1.6867C20.6288 0 17.9107 0 12.48 0H11.52C6.0893 0 3.3734 0.0022325 1.6867 1.6867ZM4.34231 7.50698C4.46511 13.3462 7.38306 16.8558 12.5023 16.8558H12.7914V13.507C14.6724 13.6967 16.0945 15.0698 16.6649 16.8558H19.3272C18.5972 14.198 16.6794 12.7256 15.4817 12.1674C16.6794 11.4753 18.3639 9.79088 18.7658 7.50698H16.3512C15.8277 9.36 14.2738 11.0445 12.7959 11.2041V7.50698H10.3814V13.9814C8.88445 13.6086 6.99348 11.7935 6.90976 7.50698H4.34231Z" fill="white"/>
</svg>
