<svg xmlns="http://www.w3.org/2000/svg" fill="none" viewBox="0 0 240 241"><path fill="#CED2DB" d="M80 0h80v96H80V0z"/><path fill="#0052FF" d="M160 48c0 22.091-17.909 40-40 40S80 70.091 80 48 97.909 8 120 8s40 17.909 40 40z"/><path fill="#5DE2F8" fill-rule="evenodd" d="M120 40c22.091 0 40-17.909 40-40H80c0 22.091 17.909 40 40 40z" clip-rule="evenodd"/><path fill="#FFD200" d="M160 96c0 22.091-17.909 40-40 40s-40-17.909-40-40 17.909-40 40-40 40 17.909 40 40z"/><path fill="#0A0B0D" fill-rule="evenodd" d="m192.462 180.237-7.704 3.857-.896-1.788 7.721-3.866a21.556 21.556 0 0 1 24.014 3.514l1.024.941-20.989 11.551-2.89 1.59-42.9 23.6-.964-1.752 42.9-23.6 2.89-1.59 18.504-10.184a19.559 19.559 0 0 0-20.71-2.273z" clip-rule="evenodd"/><path fill="#0A0B0D" fill-rule="evenodd" d="M213.778 202.493a19.977 19.977 0 0 0-18.495-7.931l-.246-1.984a21.979 21.979 0 0 1 21.236 10.015l.756 1.186-67.429 15.944-.46-1.946 64.638-15.284z" clip-rule="evenodd"/><path fill="#0A0B0D" fill-rule="evenodd" d="M182.42 166.663s.001 0 0 0l-15.199 14.11-1.361-1.466 15.2-14.11a21.587 21.587 0 0 1 24.044-3.628l1.259.605-19.921 20.278-1.132 1.148v.009l-35.226 35.842-1.427-1.402 34.653-35.258v-.011l1.707-1.731 17.924-18.245a19.587 19.587 0 0 0-20.521 3.859zm-29.764-21.082-.129 1.504a24.359 24.359 0 0 1-4.745 12.513 24.325 24.325 0 0 1-10.637 8.113l-23.724 9.29 33.302 12.528-5.491 10.681-26.493-9.964c-28.128-10.576-59.777.594-75.035 26.481l-.012.02-1.723-1.014 6.58-11.171a90.108 90.108 0 0 1 46.228-38.698 69.17 69.17 0 0 1 3.434-1.205l58.445-19.078zM47.927 202.884c17.364-17.3 43.666-23.477 67.515-14.51l24.826 9.336 3.65-7.099-36.078-13.572 28.576-11.19a22.334 22.334 0 0 0 13.936-17.412l-55.523 18.124a66.703 66.703 0 0 0-3.34 1.173l-.01.004a88.086 88.086 0 0 0-43.552 35.146z" clip-rule="evenodd"/><path fill="#0A0B0D" fill-rule="evenodd" d="m156.21 171.057-9.99 19.47-4.978 9.683-26.494-9.964c-28.125-10.569-59.783.6-75.046 26.502l-13.84 23.48-1.723-1.016 13.84-23.48c15.756-26.738 48.438-38.269 77.473-27.358l24.826 9.336 4.162-8.096 9.99-19.47c3.975-7.739 12.417-12.122 21.047-10.935l1.316.182-9.339 21.054-4.15 9.35-10.239 23.11-3.034 6.855h-59.97l-12.06 20.468-1.722-1.016 12.64-21.452h59.81l2.507-5.665 10.24-23.11 4.15-9.35 8.241-18.58c-7.314-.473-14.277 3.421-17.657 10.002zM87.997 24C95.295 14.284 106.913 8 120 8s24.705 6.284 32.003 16c-7.298 9.716-18.916 16-32.003 16s-24.705-6.284-32.003-16zM120 126c16.569 0 30-13.431 30-30 0-16.569-13.431-30-30-30-16.569 0-30 13.431-30 30 0 16.569 13.431 30 30 30zm0 2c17.673 0 32-14.327 32-32 0-17.673-14.327-32-32-32-17.673 0-32 14.327-32 32 0 17.673 14.327 32 32 32z" clip-rule="evenodd"/><path fill="#0A0B0D" fill-rule="evenodd" d="M119 112V80h2v32h-2z" clip-rule="evenodd"/><path fill="#0A0B0D" fill-rule="evenodd" d="M104 95h32v2h-32v-2z" clip-rule="evenodd"/><path fill="#0A0B0D" fill-rule="evenodd" d="m111.293 103.293 16-16 1.414 1.414-15.999 16-1.415-1.414z" clip-rule="evenodd"/><path fill="#0A0B0D" fill-rule="evenodd" d="m112.707 87.293 16 16-1.414 1.414-16-16 1.414-1.414z" clip-rule="evenodd"/><path fill="#CED2DB" d="M24 60h8v48h-8V60zm8 16h8v32h-8V76zm8-24h8v56h-8V52zm8 16h8v40h-8V68zm8-8h8v48h-8V60zm121-24h8v48h-8V36zm8 16h8v32h-8V52zm8-24h8v56h-8V28zm8 16h8v40h-8V44zm8-8h8v48h-8V36z"/><path fill="#5DE2F8" d="M64 108c0 11.046-8.954 20-20 20s-20-8.954-20-20 8.954-20 20-20 20 8.954 20 20z"/><path fill="#00D17F" d="M217 84c0 11.046-8.954 20-20 20s-20-8.954-20-20 8.954-20 20-20 20 8.954 20 20z"/><path fill="#0052FF" fill-rule="evenodd" d="M44 88c-11.046 0-20 8.954-20 20h40c0-11.046-8.954-20-20-20z" clip-rule="evenodd"/><path fill="#0A0B0D" fill-rule="evenodd" d="M197 64c-11.046 0-20 8.954-20 20h40c0-11.046-8.954-20-20-20z" clip-rule="evenodd"/></svg>