<?xml version="1.0" standalone="no"?>
<!DOCTYPE svg PUBLIC "-//W3C//DTD SVG 20010904//EN"
 "http://www.w3.org/TR/2001/REC-SVG-20010904/DTD/svg10.dtd">
<svg version="1.0" xmlns="http://www.w3.org/2000/svg"
 width="700.000000pt" height="700.000000pt" viewBox="0 0 700.000000 700.000000"
 preserveAspectRatio="xMidYMid meet">
<metadata>
Created by potrace 1.14, written by Peter Selinger 2001-2017
</metadata>
<g transform="translate(0.000000,700.000000) scale(0.100000,-0.100000)"
fill="#000000" stroke="none">
<path d="M3278 6995 c-1 -1 -42 -5 -89 -9 -47 -4 -95 -8 -105 -10 -10 -2 -41
-7 -69 -10 -335 -44 -715 -158 -1030 -312 -180 -87 -448 -247 -555 -331 -8 -6
-51 -40 -95 -74 -342 -266 -650 -623 -875 -1014 -47 -81 -170 -327 -170 -339
0 -3 -11 -29 -24 -58 -60 -133 -155 -432 -181 -569 -3 -13 -11 -58 -20 -99
-29 -147 -36 -200 -52 -370 -15 -165 -8 -592 12 -711 2 -13 6 -46 9 -74 9 -78
22 -152 51 -285 21 -96 91 -339 114 -395 5 -11 25 -65 46 -120 64 -170 213
-461 314 -615 214 -324 467 -601 775 -848 89 -72 367 -262 382 -262 4 0 15 -6
23 -14 27 -23 259 -139 390 -195 269 -116 598 -208 880 -247 25 -3 57 -8 71
-10 163 -25 682 -25 842 1 13 2 46 7 73 10 72 10 86 12 120 19 17 3 44 8 60
11 343 65 740 212 1039 384 49 28 93 51 97 51 5 0 9 5 9 10 0 6 5 10 10 10 15
0 220 141 330 227 152 118 324 280 450 422 36 41 70 79 76 85 6 6 48 61 94
121 150 197 277 405 383 628 26 53 47 99 47 102 0 2 11 28 24 57 57 127 151
421 182 573 17 81 54 301 59 350 4 33 9 71 11 85 9 46 11 524 4 605 -15 153
-21 210 -25 225 -2 8 -7 35 -10 60 -17 129 -80 384 -136 552 -348 1036 -1168
1857 -2204 2206 -168 57 -420 119 -555 137 -19 3 -46 7 -60 10 -13 2 -52 7
-86 11 -33 3 -74 8 -90 10 -32 5 -540 14 -546 9z m-268 -2099 c166 -16 377
-80 529 -162 436 -234 684 -687 682 -1244 -1 -314 -84 -598 -244 -835 -134
-198 -360 -374 -597 -464 -76 -29 -236 -69 -328 -83 -78 -11 -1281 -19 -1283
-8 -3 10 -6 2795 -3 2800 4 8 1156 4 1244 -4z m2170 -11 c3 -208 0 -2777 -4
-2783 -2 -4 -105 -7 -228 -7 l-223 0 -1 1395 c0 767 1 1400 3 1405 2 7 81 11
228 10 218 0 225 -1 225 -20z"/>
<path d="M2225 4532 c-3 -3 -5 -469 -5 -1037 l0 -1031 368 2 c202 0 385 4 407
8 371 64 614 289 720 666 40 145 53 431 26 593 -73 438 -317 704 -722 788 -54
11 -784 21 -794 11z"/>
</g>
</svg>
