<svg xmlns="http://www.w3.org/2000/svg" version="1.1" xmlns:xlink="http://www.w3.org/1999/xlink" xmlns:svgjs="http://svgjs.com/svgjs" width="1440" height="560" preserveAspectRatio="none" viewBox="0 0 1440 560"><g mask="url(&quot;#SvgjsMask1000&quot;)" fill="none"><rect width="1440" height="560" x="0" y="0" fill="#0e2a47"></rect><path d="M-76.6 551.03L-76.6 551.03" stroke="#132e65" stroke-width="1.5"></path><path d="M-76.6 551.03L-79.53 707.64" stroke="#132e65" stroke-width="1.5"></path><path d="M-76.6 551.03L78.88 640.22" stroke="#132e65" stroke-width="1.5"></path><path d="M-79.53 707.64L-79.53 707.64" stroke="#132e65" stroke-width="1.5"></path><path d="M-79.53 707.64L78.88 640.22" stroke="#132e65" stroke-width="1.5"></path><path d="M-79.53 707.64L104.97 487.75" stroke="#132e65" stroke-width="1.5"></path><path d="M-79.53 707.64L230.2 660.77" stroke="#132e65" stroke-width="1.5"></path><path d="M112.2 373.97L112.2 373.97" stroke="#132e65" stroke-width="1.5"></path><path d="M112.2 373.97L220.49 365.75" stroke="#132e65" stroke-width="1.5"></path><path d="M112.2 373.97L104.97 487.75" stroke="#132e65" stroke-width="1.5"></path><path d="M112.2 373.97L194.44 501.73" stroke="#132e65" stroke-width="1.5"></path><path d="M104.97 487.75L104.97 487.75" stroke="#132e65" stroke-width="1.5"></path><path d="M104.97 487.75L194.44 501.73" stroke="#132e65" stroke-width="1.5"></path><path d="M104.97 487.75L78.88 640.22" stroke="#132e65" stroke-width="1.5"></path><path d="M104.97 487.75L220.49 365.75" stroke="#132e65" stroke-width="1.5"></path><path d="M78.88 640.22L78.88 640.22" stroke="#132e65" stroke-width="1.5"></path><path d="M78.88 640.22L230.2 660.77" stroke="#132e65" stroke-width="1.5"></path><path d="M220.49 365.75L220.49 365.75" stroke="#132e65" stroke-width="1.5"></path><path d="M220.49 365.75L194.44 501.73" stroke="#132e65" stroke-width="1.5"></path><path d="M220.49 365.75L392.1 349.32" stroke="#132e65" stroke-width="1.5"></path><path d="M220.49 365.75L402.1 536.61" stroke="#132e65" stroke-width="1.5"></path><path d="M220.49 365.75L230.2 660.77" stroke="#132e65" stroke-width="1.5"></path><path d="M194.44 501.73L194.44 501.73" stroke="#132e65" stroke-width="1.5"></path><path d="M194.44 501.73L230.2 660.77" stroke="#132e65" stroke-width="1.5"></path><path d="M194.44 501.73L78.88 640.22" stroke="#132e65" stroke-width="1.5"></path><path d="M230.2 660.77L230.2 660.77" stroke="#132e65" stroke-width="1.5"></path><path d="M230.2 660.77L375.81 692.47" stroke="#132e65" stroke-width="1.5"></path><path d="M392.1 349.32L392.1 349.32" stroke="#132e65" stroke-width="1.5"></path><path d="M392.1 349.32L514.29 405.52" stroke="#132e65" stroke-width="1.5"></path><path d="M392.1 349.32L402.1 536.61" stroke="#132e65" stroke-width="1.5"></path><path d="M392.1 349.32L496.39 562.18" stroke="#132e65" stroke-width="1.5"></path><path d="M402.1 536.61L402.1 536.61" stroke="#132e65" stroke-width="1.5"></path><path d="M402.1 536.61L496.39 562.18" stroke="#132e65" stroke-width="1.5"></path><path d="M402.1 536.61L516.5 644.37" stroke="#132e65" stroke-width="1.5"></path><path d="M402.1 536.61L375.81 692.47" stroke="#132e65" stroke-width="1.5"></path><path d="M375.81 692.47L375.81 692.47" stroke="#132e65" stroke-width="1.5"></path><path d="M375.81 692.47L516.5 644.37" stroke="#132e65" stroke-width="1.5"></path><path d="M375.81 692.47L496.39 562.18" stroke="#132e65" stroke-width="1.5"></path><path d="M375.81 692.47L194.44 501.73" stroke="#132e65" stroke-width="1.5"></path><path d="M375.81 692.47L638.26 642.62" stroke="#132e65" stroke-width="1.5"></path><path d="M514.29 405.52L514.29 405.52" stroke="#132e65" stroke-width="1.5"></path><path d="M514.29 405.52L656.74 384.07" stroke="#132e65" stroke-width="1.5"></path><path d="M496.39 562.18L496.39 562.18" stroke="#132e65" stroke-width="1.5"></path><path d="M496.39 562.18L516.5 644.37" stroke="#132e65" stroke-width="1.5"></path><path d="M496.39 562.18L514.29 405.52" stroke="#132e65" stroke-width="1.5"></path><path d="M496.39 562.18L638.26 642.62" stroke="#132e65" stroke-width="1.5"></path><path d="M516.5 644.37L516.5 644.37" stroke="#132e65" stroke-width="1.5"></path><path d="M516.5 644.37L638.26 642.62" stroke="#132e65" stroke-width="1.5"></path><path d="M516.5 644.37L690.79 495.73" stroke="#132e65" stroke-width="1.5"></path><path d="M516.5 644.37L514.29 405.52" stroke="#132e65" stroke-width="1.5"></path><path d="M703.74 224.21L703.74 224.21" stroke="#132e65" stroke-width="1.5"></path><path d="M703.74 224.21L840.28 255.38" stroke="#132e65" stroke-width="1.5"></path><path d="M703.74 224.21L791.1 347.47" stroke="#132e65" stroke-width="1.5"></path><path d="M703.74 224.21L656.74 384.07" stroke="#132e65" stroke-width="1.5"></path><path d="M656.74 384.07L656.74 384.07" stroke="#132e65" stroke-width="1.5"></path><path d="M656.74 384.07L690.79 495.73" stroke="#132e65" stroke-width="1.5"></path><path d="M656.74 384.07L791.1 347.47" stroke="#132e65" stroke-width="1.5"></path><path d="M690.79 495.73L690.79 495.73" stroke="#132e65" stroke-width="1.5"></path><path d="M638.26 642.62L638.26 642.62" stroke="#132e65" stroke-width="1.5"></path><path d="M840.28 255.38L840.28 255.38" stroke="#132e65" stroke-width="1.5"></path><path d="M840.28 255.38L791.1 347.47" stroke="#132e65" stroke-width="1.5"></path><path d="M840.28 255.38L971.57 223.35" stroke="#132e65" stroke-width="1.5"></path><path d="M840.28 255.38L656.74 384.07" stroke="#132e65" stroke-width="1.5"></path><path d="M840.28 255.38L1091.63 229.2" stroke="#132e65" stroke-width="1.5"></path><path d="M791.1 347.47L791.1 347.47" stroke="#132e65" stroke-width="1.5"></path><path d="M791.1 347.47L690.79 495.73" stroke="#132e65" stroke-width="1.5"></path><path d="M843.55 551.75L843.55 551.75" stroke="#132e65" stroke-width="1.5"></path><path d="M843.55 551.75L849.79 676.03" stroke="#132e65" stroke-width="1.5"></path><path d="M843.55 551.75L690.79 495.73" stroke="#132e65" stroke-width="1.5"></path><path d="M849.79 676.03L849.79 676.03" stroke="#132e65" stroke-width="1.5"></path><path d="M849.79 676.03L983.62 679.51" stroke="#132e65" stroke-width="1.5"></path><path d="M849.79 676.03L638.26 642.62" stroke="#132e65" stroke-width="1.5"></path><path d="M950.47 -103.15L950.47 -103.15" stroke="#132e65" stroke-width="1.5"></path><path d="M950.47 -103.15L1146.85 -75.59" stroke="#132e65" stroke-width="1.5"></path><path d="M950.47 -103.15L971.57 223.35" stroke="#132e65" stroke-width="1.5"></path><path d="M950.47 -103.15L1302.62 -90.45" stroke="#132e65" stroke-width="1.5"></path><path d="M950.47 -103.15L1091.63 229.2" stroke="#132e65" stroke-width="1.5"></path><path d="M971.57 223.35L971.57 223.35" stroke="#132e65" stroke-width="1.5"></path><path d="M971.57 223.35L1091.63 229.2" stroke="#132e65" stroke-width="1.5"></path><path d="M971.57 223.35L1099.54 370.68" stroke="#132e65" stroke-width="1.5"></path><path d="M994.97 492.11L994.97 492.11" stroke="#132e65" stroke-width="1.5"></path><path d="M994.97 492.11L1140.84 517.73" stroke="#132e65" stroke-width="1.5"></path><path d="M994.97 492.11L1099.54 370.68" stroke="#132e65" stroke-width="1.5"></path><path d="M983.62 679.51L983.62 679.51" stroke="#132e65" stroke-width="1.5"></path><path d="M983.62 679.51L1141.03 672.96" stroke="#132e65" stroke-width="1.5"></path><path d="M1146.85 -75.59L1146.85 -75.59" stroke="#132e65" stroke-width="1.5"></path><path d="M1146.85 -75.59L1302.62 -90.45" stroke="#132e65" stroke-width="1.5"></path><path d="M1146.85 -75.59L1289.47 76.09" stroke="#132e65" stroke-width="1.5"></path><path d="M1146.85 -75.59L1424.92 -101.57" stroke="#132e65" stroke-width="1.5"></path><path d="M1091.63 229.2L1091.63 229.2" stroke="#132e65" stroke-width="1.5"></path><path d="M1099.54 370.68L1099.54 370.68" stroke="#132e65" stroke-width="1.5"></path><path d="M1099.54 370.68L1091.63 229.2" stroke="#132e65" stroke-width="1.5"></path><path d="M1099.54 370.68L1140.84 517.73" stroke="#132e65" stroke-width="1.5"></path><path d="M1099.54 370.68L1276.62 392.35" stroke="#132e65" stroke-width="1.5"></path><path d="M1140.84 517.73L1140.84 517.73" stroke="#132e65" stroke-width="1.5"></path><path d="M1140.84 517.73L1141.03 672.96" stroke="#132e65" stroke-width="1.5"></path><path d="M1141.03 672.96L1141.03 672.96" stroke="#132e65" stroke-width="1.5"></path><path d="M1141.03 672.96L1301.16 647.75" stroke="#132e65" stroke-width="1.5"></path><path d="M1141.03 672.96L1299.41 553.74" stroke="#132e65" stroke-width="1.5"></path><path d="M1141.03 672.96L994.97 492.11" stroke="#132e65" stroke-width="1.5"></path><path d="M1302.62 -90.45L1302.62 -90.45" stroke="#132e65" stroke-width="1.5"></path><path d="M1302.62 -90.45L1424.92 -101.57" stroke="#132e65" stroke-width="1.5"></path><path d="M1289.47 76.09L1289.47 76.09" stroke="#132e65" stroke-width="1.5"></path><path d="M1289.47 76.09L1433.29 98.87" stroke="#132e65" stroke-width="1.5"></path><path d="M1289.47 76.09L1302.62 -90.45" stroke="#132e65" stroke-width="1.5"></path><path d="M1289.47 76.09L1264.76 258.12" stroke="#132e65" stroke-width="1.5"></path><path d="M1264.76 258.12L1264.76 258.12" stroke="#132e65" stroke-width="1.5"></path><path d="M1264.76 258.12L1276.62 392.35" stroke="#132e65" stroke-width="1.5"></path><path d="M1264.76 258.12L1404.57 260.37" stroke="#132e65" stroke-width="1.5"></path><path d="M1264.76 258.12L1091.63 229.2" stroke="#132e65" stroke-width="1.5"></path><path d="M1264.76 258.12L1416.32 350.94" stroke="#132e65" stroke-width="1.5"></path><path d="M1264.76 258.12L1099.54 370.68" stroke="#132e65" stroke-width="1.5"></path><path d="M1276.62 392.35L1276.62 392.35" stroke="#132e65" stroke-width="1.5"></path><path d="M1276.62 392.35L1416.32 350.94" stroke="#132e65" stroke-width="1.5"></path><path d="M1276.62 392.35L1299.41 553.74" stroke="#132e65" stroke-width="1.5"></path><path d="M1299.41 553.74L1299.41 553.74" stroke="#132e65" stroke-width="1.5"></path><path d="M1299.41 553.74L1301.16 647.75" stroke="#132e65" stroke-width="1.5"></path><path d="M1299.41 553.74L1418.97 540.17" stroke="#132e65" stroke-width="1.5"></path><path d="M1299.41 553.74L1140.84 517.73" stroke="#132e65" stroke-width="1.5"></path><path d="M1301.16 647.75L1301.16 647.75" stroke="#132e65" stroke-width="1.5"></path><path d="M1301.16 647.75L1418.97 540.17" stroke="#132e65" stroke-width="1.5"></path><path d="M1424.92 -101.57L1424.92 -101.57" stroke="#132e65" stroke-width="1.5"></path><path d="M1424.92 -101.57L1597.83 -64.51" stroke="#132e65" stroke-width="1.5"></path><path d="M1424.92 -101.57L1433.29 98.87" stroke="#132e65" stroke-width="1.5"></path><path d="M1424.92 -101.57L1289.47 76.09" stroke="#132e65" stroke-width="1.5"></path><path d="M1424.92 -101.57L1578.95 93.09" stroke="#132e65" stroke-width="1.5"></path><path d="M1433.29 98.87L1433.29 98.87" stroke="#132e65" stroke-width="1.5"></path><path d="M1433.29 98.87L1578.95 93.09" stroke="#132e65" stroke-width="1.5"></path><path d="M1433.29 98.87L1404.57 260.37" stroke="#132e65" stroke-width="1.5"></path><path d="M1404.57 260.37L1404.57 260.37" stroke="#132e65" stroke-width="1.5"></path><path d="M1404.57 260.37L1416.32 350.94" stroke="#132e65" stroke-width="1.5"></path><path d="M1416.32 350.94L1416.32 350.94" stroke="#132e65" stroke-width="1.5"></path><path d="M1418.97 540.17L1418.97 540.17" stroke="#132e65" stroke-width="1.5"></path><path d="M1418.97 540.17L1590.22 561.53" stroke="#132e65" stroke-width="1.5"></path><path d="M1418.97 540.17L1416.32 350.94" stroke="#132e65" stroke-width="1.5"></path><path d="M1418.97 540.17L1276.62 392.35" stroke="#132e65" stroke-width="1.5"></path><path d="M1597.83 -64.51L1597.83 -64.51" stroke="#132e65" stroke-width="1.5"></path><path d="M1597.83 -64.51L1578.95 93.09" stroke="#132e65" stroke-width="1.5"></path><path d="M1578.95 93.09L1578.95 93.09" stroke="#132e65" stroke-width="1.5"></path><path d="M1578.95 93.09L1545.06 257.49" stroke="#132e65" stroke-width="1.5"></path><path d="M1578.95 93.09L1404.57 260.37" stroke="#132e65" stroke-width="1.5"></path><path d="M1545.06 257.49L1545.06 257.49" stroke="#132e65" stroke-width="1.5"></path><path d="M1545.06 257.49L1404.57 260.37" stroke="#132e65" stroke-width="1.5"></path><path d="M1545.06 257.49L1595.99 389.28" stroke="#132e65" stroke-width="1.5"></path><path d="M1545.06 257.49L1416.32 350.94" stroke="#132e65" stroke-width="1.5"></path><path d="M1595.99 389.28L1595.99 389.28" stroke="#132e65" stroke-width="1.5"></path><path d="M1595.99 389.28L1590.22 561.53" stroke="#132e65" stroke-width="1.5"></path><path d="M1595.99 389.28L1416.32 350.94" stroke="#132e65" stroke-width="1.5"></path><path d="M1595.99 389.28L1404.57 260.37" stroke="#132e65" stroke-width="1.5"></path><path d="M1595.99 389.28L1418.97 540.17" stroke="#132e65" stroke-width="1.5"></path><path d="M1595.99 389.28L1578.95 93.09" stroke="#132e65" stroke-width="1.5"></path><path d="M1590.22 561.53L1590.22 561.53" stroke="#132e65" stroke-width="1.5"></path><path d="M1590.22 561.53L1607.92 700.27" stroke="#132e65" stroke-width="1.5"></path><path d="M1607.92 700.27L1607.92 700.27" stroke="#132e65" stroke-width="1.5"></path><path d="M1607.92 700.27L1418.97 540.17" stroke="#132e65" stroke-width="1.5"></path><path d="M1607.92 700.27L1595.99 389.28" stroke="#132e65" stroke-width="1.5"></path><path d="M1607.92 700.27L1301.16 647.75" stroke="#132e65" stroke-width="1.5"></path><path d="M1607.92 700.27L1299.41 553.74" stroke="#132e65" stroke-width="1.5"></path><circle r="5" cx="-76.6" cy="551.03" fill="#132e65"></circle><circle r="5" cx="-79.53" cy="707.64" fill="#132e65"></circle><circle r="5" cx="112.2" cy="373.97" fill="#132e65"></circle><circle r="5" cx="104.97" cy="487.75" fill="#132e65"></circle><circle r="5" cx="78.88" cy="640.22" fill="#132e65"></circle><circle r="5" cx="220.49" cy="365.75" fill="#132e65"></circle><circle r="5" cx="194.44" cy="501.73" fill="#132e65"></circle><circle r="5" cx="230.2" cy="660.77" fill="#132e65"></circle><circle r="5" cx="392.1" cy="349.32" fill="#132e65"></circle><circle r="5" cx="402.1" cy="536.61" fill="#132e65"></circle><circle r="5" cx="375.81" cy="692.47" fill="#132e65"></circle><circle r="5" cx="514.29" cy="405.52" fill="#132e65"></circle><circle r="5" cx="496.39" cy="562.18" fill="#132e65"></circle><circle r="5" cx="516.5" cy="644.37" fill="#132e65"></circle><circle r="5" cx="703.74" cy="224.21" fill="#132e65"></circle><circle r="5" cx="656.74" cy="384.07" fill="#132e65"></circle><circle r="5" cx="690.79" cy="495.73" fill="#132e65"></circle><circle r="5" cx="638.26" cy="642.62" fill="#132e65"></circle><circle r="5" cx="840.28" cy="255.38" fill="#132e65"></circle><circle r="5" cx="791.1" cy="347.47" fill="#132e65"></circle><circle r="5" cx="843.55" cy="551.75" fill="#132e65"></circle><circle r="5" cx="849.79" cy="676.03" fill="#132e65"></circle><circle r="5" cx="950.47" cy="-103.15" fill="#132e65"></circle><circle r="5" cx="971.57" cy="223.35" fill="#132e65"></circle><circle r="5" cx="994.97" cy="492.11" fill="#132e65"></circle><circle r="5" cx="983.62" cy="679.51" fill="#132e65"></circle><circle r="5" cx="1146.85" cy="-75.59" fill="#132e65"></circle><circle r="5" cx="1091.63" cy="229.2" fill="#132e65"></circle><circle r="5" cx="1099.54" cy="370.68" fill="#132e65"></circle><circle r="5" cx="1140.84" cy="517.73" fill="#132e65"></circle><circle r="5" cx="1141.03" cy="672.96" fill="#132e65"></circle><circle r="5" cx="1302.62" cy="-90.45" fill="#132e65"></circle><circle r="5" cx="1289.47" cy="76.09" fill="#132e65"></circle><circle r="5" cx="1264.76" cy="258.12" fill="#132e65"></circle><circle r="5" cx="1276.62" cy="392.35" fill="#132e65"></circle><circle r="5" cx="1299.41" cy="553.74" fill="#132e65"></circle><circle r="5" cx="1301.16" cy="647.75" fill="#132e65"></circle><circle r="5" cx="1424.92" cy="-101.57" fill="#132e65"></circle><circle r="5" cx="1433.29" cy="98.87" fill="#132e65"></circle><circle r="5" cx="1404.57" cy="260.37" fill="#132e65"></circle><circle r="5" cx="1416.32" cy="350.94" fill="#132e65"></circle><circle r="5" cx="1418.97" cy="540.17" fill="#132e65"></circle><circle r="5" cx="1597.83" cy="-64.51" fill="#132e65"></circle><circle r="5" cx="1578.95" cy="93.09" fill="#132e65"></circle><circle r="5" cx="1545.06" cy="257.49" fill="#132e65"></circle><circle r="5" cx="1595.99" cy="389.28" fill="#132e65"></circle><circle r="5" cx="1590.22" cy="561.53" fill="#132e65"></circle><circle r="5" cx="1607.92" cy="700.27" fill="#132e65"></circle><path d="M-72.02 561.29L-72.02 561.29" stroke="hsl(228.5, 77.2%, 51.5%)" stroke-width="1.5"></path><path d="M-72.02 561.29L-87.85 664.47" stroke="hsl(228.5, 77.2%, 51.5%)" stroke-width="1.5"></path><path d="M-72.02 561.29L63.93 684.49" stroke="hsl(228.5, 77.2%, 51.5%)" stroke-width="1.5"></path><path d="M-72.02 561.29L103.91 501.43" stroke="hsl(228.5, 77.2%, 51.5%)" stroke-width="1.5"></path><path d="M801.3 344.96L801.3 344.96" stroke="hsl(228.5, 77.2%, 51.5%)" stroke-width="1.5"></path><path d="M801.3 344.96L958.61 346.06" stroke="hsl(228.5, 77.2%, 51.5%)" stroke-width="1.5"></path><path d="M801.3 344.96L638.7 375.78" stroke="hsl(228.5, 77.2%, 51.5%)" stroke-width="1.5"></path><path d="M1580.8 373.76L1580.8 373.76" stroke="hsl(228.5, 77.2%, 51.5%)" stroke-width="1.5"></path><path d="M1580.8 373.76L1566.93 530.3" stroke="hsl(228.5, 77.2%, 51.5%)" stroke-width="1.5"></path><path d="M1580.8 373.76L1584.1 213.28" stroke="hsl(228.5, 77.2%, 51.5%)" stroke-width="1.5"></path><path d="M1580.8 373.76L1453.89 247.95" stroke="hsl(228.5, 77.2%, 51.5%)" stroke-width="1.5"></path><path d="M1580.8 373.76L1395.07 389.22" stroke="hsl(228.5, 77.2%, 51.5%)" stroke-width="1.5"></path><path d="M1580.8 373.76L1414.32 504.98" stroke="hsl(228.5, 77.2%, 51.5%)" stroke-width="1.5"></path><path d="M1566.93 530.3L1566.93 530.3" stroke="hsl(228.5, 77.2%, 51.5%)" stroke-width="1.5"></path><path d="M1566.93 530.3L1554.45 681.95" stroke="hsl(228.5, 77.2%, 51.5%)" stroke-width="1.5"></path><path d="M1566.93 530.3L1414.32 504.98" stroke="hsl(228.5, 77.2%, 51.5%)" stroke-width="1.5"></path><path d="M-87.85 664.47L-87.85 664.47" stroke="hsl(228.5, 77.2%, 51.5%)" stroke-width="1.5"></path><path d="M-87.85 664.47L63.93 684.49" stroke="hsl(228.5, 77.2%, 51.5%)" stroke-width="1.5"></path><path d="M-87.85 664.47L103.91 501.43" stroke="hsl(228.5, 77.2%, 51.5%)" stroke-width="1.5"></path><path d="M103.91 501.43L103.91 501.43" stroke="hsl(228.5, 77.2%, 51.5%)" stroke-width="1.5"></path><path d="M103.91 501.43L256.06 543.1" stroke="hsl(228.5, 77.2%, 51.5%)" stroke-width="1.5"></path><path d="M63.93 684.49L63.93 684.49" stroke="hsl(228.5, 77.2%, 51.5%)" stroke-width="1.5"></path><path d="M63.93 684.49L103.91 501.43" stroke="hsl(228.5, 77.2%, 51.5%)" stroke-width="1.5"></path><path d="M63.93 684.49L260.45 682.34" stroke="hsl(228.5, 77.2%, 51.5%)" stroke-width="1.5"></path><path d="M256.06 543.1L256.06 543.1" stroke="hsl(228.5, 77.2%, 51.5%)" stroke-width="1.5"></path><path d="M256.06 543.1L347.5 548.07" stroke="hsl(228.5, 77.2%, 51.5%)" stroke-width="1.5"></path><path d="M256.06 543.1L345.75 645.29" stroke="hsl(228.5, 77.2%, 51.5%)" stroke-width="1.5"></path><path d="M256.06 543.1L260.45 682.34" stroke="hsl(228.5, 77.2%, 51.5%)" stroke-width="1.5"></path><path d="M256.06 543.1L63.93 684.49" stroke="hsl(228.5, 77.2%, 51.5%)" stroke-width="1.5"></path><path d="M260.45 682.34L260.45 682.34" stroke="hsl(228.5, 77.2%, 51.5%)" stroke-width="1.5"></path><path d="M260.45 682.34L345.75 645.29" stroke="hsl(228.5, 77.2%, 51.5%)" stroke-width="1.5"></path><path d="M260.45 682.34L347.5 548.07" stroke="hsl(228.5, 77.2%, 51.5%)" stroke-width="1.5"></path><path d="M347.5 548.07L347.5 548.07" stroke="hsl(228.5, 77.2%, 51.5%)" stroke-width="1.5"></path><path d="M347.5 548.07L345.75 645.29" stroke="hsl(228.5, 77.2%, 51.5%)" stroke-width="1.5"></path><path d="M347.5 548.07L498.01 504.38" stroke="hsl(228.5, 77.2%, 51.5%)" stroke-width="1.5"></path><path d="M347.5 548.07L502.23 683.07" stroke="hsl(228.5, 77.2%, 51.5%)" stroke-width="1.5"></path><path d="M345.75 645.29L345.75 645.29" stroke="hsl(228.5, 77.2%, 51.5%)" stroke-width="1.5"></path><path d="M533.63 397.42L533.63 397.42" stroke="hsl(228.5, 77.2%, 51.5%)" stroke-width="1.5"></path><path d="M533.63 397.42L638.7 375.78" stroke="hsl(228.5, 77.2%, 51.5%)" stroke-width="1.5"></path><path d="M533.63 397.42L498.01 504.38" stroke="hsl(228.5, 77.2%, 51.5%)" stroke-width="1.5"></path><path d="M533.63 397.42L702.6 556.47" stroke="hsl(228.5, 77.2%, 51.5%)" stroke-width="1.5"></path><path d="M533.63 397.42L347.5 548.07" stroke="hsl(228.5, 77.2%, 51.5%)" stroke-width="1.5"></path><path d="M533.63 397.42L801.3 344.96" stroke="hsl(228.5, 77.2%, 51.5%)" stroke-width="1.5"></path><path d="M498.01 504.38L498.01 504.38" stroke="hsl(228.5, 77.2%, 51.5%)" stroke-width="1.5"></path><path d="M498.01 504.38L502.23 683.07" stroke="hsl(228.5, 77.2%, 51.5%)" stroke-width="1.5"></path><path d="M498.01 504.38L638.7 375.78" stroke="hsl(228.5, 77.2%, 51.5%)" stroke-width="1.5"></path><path d="M498.01 504.38L345.75 645.29" stroke="hsl(228.5, 77.2%, 51.5%)" stroke-width="1.5"></path><path d="M498.01 504.38L702.6 556.47" stroke="hsl(228.5, 77.2%, 51.5%)" stroke-width="1.5"></path><path d="M502.23 683.07L502.23 683.07" stroke="hsl(228.5, 77.2%, 51.5%)" stroke-width="1.5"></path><path d="M502.23 683.07L345.75 645.29" stroke="hsl(228.5, 77.2%, 51.5%)" stroke-width="1.5"></path><path d="M502.23 683.07L669.12 673.55" stroke="hsl(228.5, 77.2%, 51.5%)" stroke-width="1.5"></path><path d="M638.7 375.78L638.7 375.78" stroke="hsl(228.5, 77.2%, 51.5%)" stroke-width="1.5"></path><path d="M638.7 375.78L702.6 556.47" stroke="hsl(228.5, 77.2%, 51.5%)" stroke-width="1.5"></path><path d="M702.6 556.47L702.6 556.47" stroke="hsl(228.5, 77.2%, 51.5%)" stroke-width="1.5"></path><path d="M702.6 556.47L819.64 559.22" stroke="hsl(228.5, 77.2%, 51.5%)" stroke-width="1.5"></path><path d="M702.6 556.47L669.12 673.55" stroke="hsl(228.5, 77.2%, 51.5%)" stroke-width="1.5"></path><path d="M669.12 673.55L669.12 673.55" stroke="hsl(228.5, 77.2%, 51.5%)" stroke-width="1.5"></path><path d="M669.12 673.55L818.28 661.16" stroke="hsl(228.5, 77.2%, 51.5%)" stroke-width="1.5"></path><path d="M669.12 673.55L819.64 559.22" stroke="hsl(228.5, 77.2%, 51.5%)" stroke-width="1.5"></path><path d="M669.12 673.55L498.01 504.38" stroke="hsl(228.5, 77.2%, 51.5%)" stroke-width="1.5"></path><path d="M819.64 559.22L819.64 559.22" stroke="hsl(228.5, 77.2%, 51.5%)" stroke-width="1.5"></path><path d="M819.64 559.22L818.28 661.16" stroke="hsl(228.5, 77.2%, 51.5%)" stroke-width="1.5"></path><path d="M819.64 559.22L942.32 512.49" stroke="hsl(228.5, 77.2%, 51.5%)" stroke-width="1.5"></path><path d="M818.28 661.16L818.28 661.16" stroke="hsl(228.5, 77.2%, 51.5%)" stroke-width="1.5"></path><path d="M818.28 661.16L960.85 707.44" stroke="hsl(228.5, 77.2%, 51.5%)" stroke-width="1.5"></path><path d="M818.28 661.16L702.6 556.47" stroke="hsl(228.5, 77.2%, 51.5%)" stroke-width="1.5"></path><path d="M818.28 661.16L942.32 512.49" stroke="hsl(228.5, 77.2%, 51.5%)" stroke-width="1.5"></path><path d="M958.61 346.06L958.61 346.06" stroke="hsl(228.5, 77.2%, 51.5%)" stroke-width="1.5"></path><path d="M958.61 346.06L1116.68 356.78" stroke="hsl(228.5, 77.2%, 51.5%)" stroke-width="1.5"></path><path d="M958.61 346.06L942.32 512.49" stroke="hsl(228.5, 77.2%, 51.5%)" stroke-width="1.5"></path><path d="M958.61 346.06L1158.16 237.85" stroke="hsl(228.5, 77.2%, 51.5%)" stroke-width="1.5"></path><path d="M942.32 512.49L942.32 512.49" stroke="hsl(228.5, 77.2%, 51.5%)" stroke-width="1.5"></path><path d="M942.32 512.49L960.85 707.44" stroke="hsl(228.5, 77.2%, 51.5%)" stroke-width="1.5"></path><path d="M942.32 512.49L1139.65 528.68" stroke="hsl(228.5, 77.2%, 51.5%)" stroke-width="1.5"></path><path d="M960.85 707.44L960.85 707.44" stroke="hsl(228.5, 77.2%, 51.5%)" stroke-width="1.5"></path><path d="M960.85 707.44L1119.16 702.61" stroke="hsl(228.5, 77.2%, 51.5%)" stroke-width="1.5"></path><path d="M1157.16 -108.39L1157.16 -108.39" stroke="hsl(228.5, 77.2%, 51.5%)" stroke-width="1.5"></path><path d="M1157.16 -108.39L1256.74 -94.73" stroke="hsl(228.5, 77.2%, 51.5%)" stroke-width="1.5"></path><path d="M1157.16 -108.39L1431.31 -38.9" stroke="hsl(228.5, 77.2%, 51.5%)" stroke-width="1.5"></path><path d="M1157.16 -108.39L1434.32 47.68" stroke="hsl(228.5, 77.2%, 51.5%)" stroke-width="1.5"></path><path d="M1157.16 -108.39L1158.16 237.85" stroke="hsl(228.5, 77.2%, 51.5%)" stroke-width="1.5"></path><path d="M1157.16 -108.39L1267.8 257.15" stroke="hsl(228.5, 77.2%, 51.5%)" stroke-width="1.5"></path><path d="M1157.16 -108.39L1555.25 -97.04" stroke="hsl(228.5, 77.2%, 51.5%)" stroke-width="1.5"></path><path d="M1158.16 237.85L1158.16 237.85" stroke="hsl(228.5, 77.2%, 51.5%)" stroke-width="1.5"></path><path d="M1158.16 237.85L1267.8 257.15" stroke="hsl(228.5, 77.2%, 51.5%)" stroke-width="1.5"></path><path d="M1158.16 237.85L1116.68 356.78" stroke="hsl(228.5, 77.2%, 51.5%)" stroke-width="1.5"></path><path d="M1158.16 237.85L1296.1 370.97" stroke="hsl(228.5, 77.2%, 51.5%)" stroke-width="1.5"></path><path d="M1158.16 237.85L1395.07 389.22" stroke="hsl(228.5, 77.2%, 51.5%)" stroke-width="1.5"></path><path d="M1116.68 356.78L1116.68 356.78" stroke="hsl(228.5, 77.2%, 51.5%)" stroke-width="1.5"></path><path d="M1116.68 356.78L1139.65 528.68" stroke="hsl(228.5, 77.2%, 51.5%)" stroke-width="1.5"></path><path d="M1116.68 356.78L1296.1 370.97" stroke="hsl(228.5, 77.2%, 51.5%)" stroke-width="1.5"></path><path d="M1116.68 356.78L1267.8 257.15" stroke="hsl(228.5, 77.2%, 51.5%)" stroke-width="1.5"></path><path d="M1116.68 356.78L942.32 512.49" stroke="hsl(228.5, 77.2%, 51.5%)" stroke-width="1.5"></path><path d="M1139.65 528.68L1139.65 528.68" stroke="hsl(228.5, 77.2%, 51.5%)" stroke-width="1.5"></path><path d="M1139.65 528.68L1281.86 535.37" stroke="hsl(228.5, 77.2%, 51.5%)" stroke-width="1.5"></path><path d="M1139.65 528.68L1119.16 702.61" stroke="hsl(228.5, 77.2%, 51.5%)" stroke-width="1.5"></path><path d="M1119.16 702.61L1119.16 702.61" stroke="hsl(228.5, 77.2%, 51.5%)" stroke-width="1.5"></path><path d="M1119.16 702.61L1282.56 672.69" stroke="hsl(228.5, 77.2%, 51.5%)" stroke-width="1.5"></path><path d="M1256.74 -94.73L1256.74 -94.73" stroke="hsl(228.5, 77.2%, 51.5%)" stroke-width="1.5"></path><path d="M1256.74 -94.73L1431.31 -38.9" stroke="hsl(228.5, 77.2%, 51.5%)" stroke-width="1.5"></path><path d="M1256.74 -94.73L1434.32 47.68" stroke="hsl(228.5, 77.2%, 51.5%)" stroke-width="1.5"></path><path d="M1267.8 257.15L1267.8 257.15" stroke="hsl(228.5, 77.2%, 51.5%)" stroke-width="1.5"></path><path d="M1267.8 257.15L1296.1 370.97" stroke="hsl(228.5, 77.2%, 51.5%)" stroke-width="1.5"></path><path d="M1267.8 257.15L1395.07 389.22" stroke="hsl(228.5, 77.2%, 51.5%)" stroke-width="1.5"></path><path d="M1267.8 257.15L1453.89 247.95" stroke="hsl(228.5, 77.2%, 51.5%)" stroke-width="1.5"></path><path d="M1296.1 370.97L1296.1 370.97" stroke="hsl(228.5, 77.2%, 51.5%)" stroke-width="1.5"></path><path d="M1296.1 370.97L1395.07 389.22" stroke="hsl(228.5, 77.2%, 51.5%)" stroke-width="1.5"></path><path d="M1281.86 535.37L1281.86 535.37" stroke="hsl(228.5, 77.2%, 51.5%)" stroke-width="1.5"></path><path d="M1281.86 535.37L1414.32 504.98" stroke="hsl(228.5, 77.2%, 51.5%)" stroke-width="1.5"></path><path d="M1281.86 535.37L1282.56 672.69" stroke="hsl(228.5, 77.2%, 51.5%)" stroke-width="1.5"></path><path d="M1282.56 672.69L1282.56 672.69" stroke="hsl(228.5, 77.2%, 51.5%)" stroke-width="1.5"></path><path d="M1431.31 -38.9L1431.31 -38.9" stroke="hsl(228.5, 77.2%, 51.5%)" stroke-width="1.5"></path><path d="M1431.31 -38.9L1434.32 47.68" stroke="hsl(228.5, 77.2%, 51.5%)" stroke-width="1.5"></path><path d="M1431.31 -38.9L1555.25 -97.04" stroke="hsl(228.5, 77.2%, 51.5%)" stroke-width="1.5"></path><path d="M1431.31 -38.9L1606.76 93.18" stroke="hsl(228.5, 77.2%, 51.5%)" stroke-width="1.5"></path><path d="M1434.32 47.68L1434.32 47.68" stroke="hsl(228.5, 77.2%, 51.5%)" stroke-width="1.5"></path><path d="M1434.32 47.68L1606.76 93.18" stroke="hsl(228.5, 77.2%, 51.5%)" stroke-width="1.5"></path><path d="M1434.32 47.68L1555.25 -97.04" stroke="hsl(228.5, 77.2%, 51.5%)" stroke-width="1.5"></path><path d="M1434.32 47.68L1453.89 247.95" stroke="hsl(228.5, 77.2%, 51.5%)" stroke-width="1.5"></path><path d="M1434.32 47.68L1584.1 213.28" stroke="hsl(228.5, 77.2%, 51.5%)" stroke-width="1.5"></path><path d="M1453.89 247.95L1453.89 247.95" stroke="hsl(228.5, 77.2%, 51.5%)" stroke-width="1.5"></path><path d="M1453.89 247.95L1584.1 213.28" stroke="hsl(228.5, 77.2%, 51.5%)" stroke-width="1.5"></path><path d="M1453.89 247.95L1395.07 389.22" stroke="hsl(228.5, 77.2%, 51.5%)" stroke-width="1.5"></path><path d="M1395.07 389.22L1395.07 389.22" stroke="hsl(228.5, 77.2%, 51.5%)" stroke-width="1.5"></path><path d="M1395.07 389.22L1414.32 504.98" stroke="hsl(228.5, 77.2%, 51.5%)" stroke-width="1.5"></path><path d="M1395.07 389.22L1281.86 535.37" stroke="hsl(228.5, 77.2%, 51.5%)" stroke-width="1.5"></path><path d="M1414.32 504.98L1414.32 504.98" stroke="hsl(228.5, 77.2%, 51.5%)" stroke-width="1.5"></path><path d="M1456.79 709.53L1456.79 709.53" stroke="hsl(228.5, 77.2%, 51.5%)" stroke-width="1.5"></path><path d="M1456.79 709.53L1554.45 681.95" stroke="hsl(228.5, 77.2%, 51.5%)" stroke-width="1.5"></path><path d="M1456.79 709.53L1282.56 672.69" stroke="hsl(228.5, 77.2%, 51.5%)" stroke-width="1.5"></path><path d="M1456.79 709.53L1414.32 504.98" stroke="hsl(228.5, 77.2%, 51.5%)" stroke-width="1.5"></path><path d="M1456.79 709.53L1566.93 530.3" stroke="hsl(228.5, 77.2%, 51.5%)" stroke-width="1.5"></path><path d="M1555.25 -97.04L1555.25 -97.04" stroke="hsl(228.5, 77.2%, 51.5%)" stroke-width="1.5"></path><path d="M1555.25 -97.04L1606.76 93.18" stroke="hsl(228.5, 77.2%, 51.5%)" stroke-width="1.5"></path><path d="M1606.76 93.18L1606.76 93.18" stroke="hsl(228.5, 77.2%, 51.5%)" stroke-width="1.5"></path><path d="M1606.76 93.18L1584.1 213.28" stroke="hsl(228.5, 77.2%, 51.5%)" stroke-width="1.5"></path><path d="M1584.1 213.28L1584.1 213.28" stroke="hsl(228.5, 77.2%, 51.5%)" stroke-width="1.5"></path><path d="M1554.45 681.95L1554.45 681.95" stroke="hsl(228.5, 77.2%, 51.5%)" stroke-width="1.5"></path><circle r="25" cx="-72.02" cy="561.29" fill="url(#SvgjsRadialGradient1001)"></circle><circle r="25" cx="801.3" cy="344.96" fill="url(#SvgjsRadialGradient1001)"></circle><circle r="25" cx="1580.8" cy="373.76" fill="url(#SvgjsRadialGradient1001)"></circle><circle r="25" cx="1566.93" cy="530.3" fill="url(#SvgjsRadialGradient1001)"></circle><circle r="5" cx="-87.85" cy="664.47" fill="#8b9ad9"></circle><circle r="5" cx="103.91" cy="501.43" fill="#8b9ad9"></circle><circle r="5" cx="63.93" cy="684.49" fill="#8b9ad9"></circle><circle r="5" cx="256.06" cy="543.1" fill="#8b9ad9"></circle><circle r="5" cx="260.45" cy="682.34" fill="#8b9ad9"></circle><circle r="5" cx="347.5" cy="548.07" fill="#8b9ad9"></circle><circle r="5" cx="345.75" cy="645.29" fill="#8b9ad9"></circle><circle r="5" cx="533.63" cy="397.42" fill="#8b9ad9"></circle><circle r="5" cx="498.01" cy="504.38" fill="#8b9ad9"></circle><circle r="5" cx="502.23" cy="683.07" fill="#8b9ad9"></circle><circle r="5" cx="638.7" cy="375.78" fill="#8b9ad9"></circle><circle r="5" cx="702.6" cy="556.47" fill="#8b9ad9"></circle><circle r="5" cx="669.12" cy="673.55" fill="#8b9ad9"></circle><circle r="5" cx="819.64" cy="559.22" fill="#8b9ad9"></circle><circle r="5" cx="818.28" cy="661.16" fill="#8b9ad9"></circle><circle r="5" cx="958.61" cy="346.06" fill="#8b9ad9"></circle><circle r="5" cx="942.32" cy="512.49" fill="#8b9ad9"></circle><circle r="5" cx="960.85" cy="707.44" fill="#8b9ad9"></circle><circle r="5" cx="1157.16" cy="-108.39" fill="#8b9ad9"></circle><circle r="5" cx="1158.16" cy="237.85" fill="#8b9ad9"></circle><circle r="5" cx="1116.68" cy="356.78" fill="#8b9ad9"></circle><circle r="5" cx="1139.65" cy="528.68" fill="#8b9ad9"></circle><circle r="5" cx="1119.16" cy="702.61" fill="#8b9ad9"></circle><circle r="5" cx="1256.74" cy="-94.73" fill="#8b9ad9"></circle><circle r="5" cx="1267.8" cy="257.15" fill="#8b9ad9"></circle><circle r="5" cx="1296.1" cy="370.97" fill="#8b9ad9"></circle><circle r="5" cx="1281.86" cy="535.37" fill="#8b9ad9"></circle><circle r="5" cx="1282.56" cy="672.69" fill="#8b9ad9"></circle><circle r="5" cx="1431.31" cy="-38.9" fill="#8b9ad9"></circle><circle r="5" cx="1434.32" cy="47.68" fill="#8b9ad9"></circle><circle r="5" cx="1453.89" cy="247.95" fill="#8b9ad9"></circle><circle r="5" cx="1395.07" cy="389.22" fill="#8b9ad9"></circle><circle r="5" cx="1414.32" cy="504.98" fill="#8b9ad9"></circle><circle r="5" cx="1456.79" cy="709.53" fill="#8b9ad9"></circle><circle r="5" cx="1555.25" cy="-97.04" fill="#8b9ad9"></circle><circle r="5" cx="1606.76" cy="93.18" fill="#8b9ad9"></circle><circle r="5" cx="1584.1" cy="213.28" fill="#8b9ad9"></circle><circle r="5" cx="1554.45" cy="681.95" fill="#8b9ad9"></circle></g><defs><mask id="SvgjsMask1000"><rect width="1440" height="560" fill="#ffffff"></rect></mask><radialGradient id="SvgjsRadialGradient1001"><stop stop-color="#ffffff" offset="0.1"></stop><stop stop-color="#1735b3" offset="0.2"></stop><stop stop-color="rgba(23, 53, 179, 0)" offset="1"></stop></radialGradient></defs></svg>