<svg width="77" height="47" viewBox="0 0 77 47" fill="none" xmlns="http://www.w3.org/2000/svg">
<g clip-path="url(#clip0_1_97)">
<path d="M40.3 7.7L31 1.4" stroke="black" stroke-width="3" stroke-miterlimit="10"/>
<path d="M46.7 1.7H67.8" stroke="black" stroke-width="3" stroke-miterlimit="10"/>
<path d="M66.2 1.7V41.2" stroke="black" stroke-width="3" stroke-miterlimit="10"/>
<path d="M67 39.6H54.4" stroke="black" stroke-width="3" stroke-miterlimit="10"/>
<path d="M38.5 7.7L47.8 1.4" stroke="black" stroke-width="3" stroke-miterlimit="10"/>
<path d="M21.4 12.7H56.2" stroke="black" stroke-width="3" stroke-miterlimit="10"/>
<path d="M54.4 19.1V12.2" stroke="black" stroke-width="3" stroke-miterlimit="10"/>
<path d="M22.9 26V12" stroke="black" stroke-width="3" stroke-miterlimit="10"/>
<path d="M21.4 34.2H56.2" stroke="black" stroke-width="3" stroke-miterlimit="10"/>
<path d="M54.4 27.5V34.5" stroke="black" stroke-width="3" stroke-miterlimit="10"/>
<path d="M22.9 20.9V34.9" stroke="black" stroke-width="3" stroke-miterlimit="10"/>
<path d="M38.9 23.6L36.9 21.6" stroke="black" stroke-width="1.5" stroke-miterlimit="10"/>
<path d="M36.2 20.2H40" stroke="black" stroke-width="1.5" stroke-miterlimit="10"/>
<path d="M37.8 20.2H36.2V22.3H37.8V20.2Z" fill="black"/>
<path d="M36.8 21.6L38.8 23.6L40.7 21.6" stroke="black" stroke-width="1.5" stroke-miterlimit="10"/>
<path d="M41.4 20.2H37.7" stroke="black" stroke-width="1.5" stroke-miterlimit="10"/>
<path d="M39.8302 22.2557L41.4302 22.2557L41.4302 20.1557L39.8302 20.1557L39.8302 22.2557Z" fill="black"/>
<path d="M38.8 23.9L36.8 25.9" stroke="black" stroke-width="1.5" stroke-miterlimit="10"/>
<path d="M36.2 27.3H39.9" stroke="black" stroke-width="1.5" stroke-miterlimit="10"/>
<path d="M37.8 25.2H36.2V27.3H37.8V25.2Z" fill="black"/>
<path d="M36.7 25.9L38.7 23.9L40.7 25.9" stroke="black" stroke-width="1.5" stroke-miterlimit="10"/>
<path d="M41.3 27.3H37.6" stroke="black" stroke-width="1.5" stroke-miterlimit="10"/>
<path d="M39.724 27.3368L41.324 27.3368L41.324 25.2368L39.724 25.2368L39.724 27.3368Z" fill="black"/>
<path d="M72.3 45.9L5.80001 46L2.20001 43L75.6 42.9L72.3 45.9Z" stroke="black" stroke-miterlimit="10"/>
<path d="M56.2 12.2H53.8V19H56.2V12.2Z" fill="black"/>
<path d="M56.2 27.5H54.4V34.5H56.2V27.5Z" fill="black"/>
<path d="M38.5 7.3L47.8 1" stroke="black" stroke-width="3" stroke-miterlimit="10"/>
<path d="M32.1 1.4H11" stroke="black" stroke-width="3" stroke-miterlimit="10"/>
<path d="M12.5 1.4V40.8" stroke="black" stroke-width="3" stroke-miterlimit="10"/>
<path d="M11.8 39.2H24.4" stroke="black" stroke-width="3" stroke-miterlimit="10"/>
<path d="M40.3 7.3L31 1" stroke="black" stroke-width="3" stroke-miterlimit="10"/>
</g>
<defs>
<clipPath id="clip0_1_97">
<rect width="77" height="47" fill="white"/>
</clipPath>
</defs>
</svg>
