<?xml version="1.0" encoding="utf-8"?><svg version="1.1" id="Layer_1" xmlns="http://www.w3.org/2000/svg" xmlns:xlink="http://www.w3.org/1999/xlink" x="0px" y="0px" viewBox="0 0 122.88 93.99" style="enable-background:new 0 0 122.88 93.99" xml:space="preserve"><g><path d="M1.65,4.36C0.47,4.05-0.24,2.84,0.07,1.65C0.38,0.47,1.6-0.24,2.78,0.07c19.47,5.16,38.97,7.89,58.51,7.97 c19.54,0.08,39.13-2.5,58.79-7.96c1.18-0.33,2.4,0.37,2.72,1.54c0.33,1.18-0.37,2.4-1.54,2.72c-3.36,0.93-6.72,1.78-10.07,2.55 l-10.78,32.32L82.22,11.55c-2.21,0.2-4.41,0.37-6.61,0.51l-13.8,32.05L47.36,11.98c-2.54-0.17-5.08-0.38-7.62-0.64L23.42,38.55 L12.07,6.89C8.59,6.12,5.12,5.28,1.65,4.36L1.65,4.36z M67.09,62.37l17.22,31.63l11.57-33.71c3.08-0.41,6.04-0.87,8.85-1.38 c1.2-0.22,2-1.37,1.79-2.57c-0.22-1.2-1.37-2-2.57-1.79c-11.88,2.16-26.48,3.45-41.19,3.43c-13.12-0.02-26.34-1.09-37.78-3.54 c-1.2-0.25-2.37,0.51-2.63,1.71c-0.25,1.2,0.51,2.37,1.71,2.63c2.51,0.54,5.11,1.01,7.77,1.42l13.75,30.78l14.32-28.6 c0.95,0.01,1.9,0.02,2.86,0.02C64.2,62.4,65.65,62.39,67.09,62.37L67.09,62.37z"/></g></svg>