<svg width="14" height="14" viewBox="0 0 14 14" fill="none" xmlns="http://www.w3.org/2000/svg">
<g clip-path="url(#clip0_73_53702)">
<path d="M13.8292 13.0043L10.3473 9.52234C11.2961 8.36186 11.7627 6.88106 11.6504 5.38625C11.538 3.89145 10.8555 2.49699 9.74388 1.49131C8.63226 0.485641 7.17663 -0.0543027 5.67807 -0.0168342C4.17952 0.0206344 2.75269 0.632649 1.69272 1.69262C0.632756 2.75259 0.0207412 4.17941 -0.0167273 5.67797C-0.0541959 7.17652 0.485748 8.63215 1.49142 9.74377C2.49709 10.8554 3.89155 11.5379 5.38636 11.6503C6.88117 11.7626 8.36196 11.296 9.52245 10.3472L13.0044 13.8291C13.1144 13.9354 13.2617 13.9942 13.4147 13.9928C13.5676 13.9915 13.7139 13.9301 13.8221 13.822C13.9303 13.7138 13.9916 13.5675 13.9929 13.4146C13.9943 13.2616 13.9355 13.1143 13.8292 13.0043ZM5.83345 10.5C4.91047 10.5 4.00822 10.2263 3.24079 9.71354C2.47336 9.20076 1.87522 8.47192 1.52201 7.6192C1.1688 6.76648 1.07639 5.82817 1.25645 4.92292C1.43652 4.01768 1.88097 3.18616 2.53362 2.53351C3.18626 1.88087 4.01778 1.43641 4.92303 1.25635C5.82827 1.07628 6.76658 1.1687 7.61931 1.52191C8.47203 1.87511 9.20086 2.47325 9.71364 3.24068C10.2264 4.00811 10.5001 4.91036 10.5001 5.83334C10.4987 7.07059 10.0066 8.25677 9.13175 9.13164C8.25688 10.0065 7.0707 10.4986 5.83345 10.5Z" fill="#747474"/>
</g>
<defs>
<clipPath id="clip0_73_53702">
<rect width="14" height="14" fill="white"/>
</clipPath>
</defs>
</svg>
