<svg xmlns="http://www.w3.org/2000/svg">
	<symbol id="reddit">
		<g>
			<path d="M9.25,14.5C8.561,14.5,8,13.939,8,13.25C8,12.561,8.561,12,9.25,12c0.689,0,1.25,0.561,1.25,1.25   C10.5,13.939,9.939,14.5,9.25,14.5z"/>
			<path d="M14.97,16.095c0.127,0.127,0.126,0.332,0,0.458c-0.853,0.852-2.488,0.918-2.969,0.918c-0.481,0-2.116-0.066-2.968-0.918   c-0.127-0.127-0.127-0.331,0-0.458c0.127-0.127,0.331-0.127,0.458,0c0.538,0.538,1.688,0.728,2.51,0.728   c0.822,0,1.972-0.191,2.511-0.729C14.639,15.968,14.844,15.968,14.97,16.095z"/>
			<path d="M16,13.25c0,0.69-0.561,1.25-1.25,1.25c-0.69,0-1.25-0.561-1.25-1.25c0-0.689,0.561-1.25,1.25-1.25   C15.439,12,16,12.561,16,13.25z"/>
			<path d="M12,0C5.373,0,0,5.373,0,12s5.373,12,12,12s12-5.373,12-12S18.627,0,12,0z M18.957,13.599   c0.027,0.173,0.041,0.348,0.041,0.526c0,2.692-3.134,4.875-7,4.875c-3.866,0-7-2.183-7-4.875c0-0.179,0.015-0.355,0.042-0.529   C4.431,13.322,4.006,12.711,4.006,12c0-0.967,0.783-1.75,1.75-1.75c0.47,0,0.896,0.186,1.21,0.488   c1.212-0.873,2.886-1.431,4.749-1.483l0.89-4.185c0.017-0.081,0.066-0.152,0.135-0.197c0.069-0.045,0.154-0.061,0.235-0.044   l2.908,0.618C16.088,5.036,16.509,4.75,17,4.75c0.69,0,1.25,0.56,1.25,1.25S17.69,7.25,17,7.25c-0.67,0-1.213-0.529-1.244-1.191   l-2.604-0.554l-0.797,3.75c1.836,0.064,3.484,0.622,4.68,1.485c0.315-0.303,0.742-0.491,1.214-0.491c0.967,0,1.75,0.783,1.75,1.75   C19.998,12.714,19.57,13.327,18.957,13.599z"/>
		</g>
	</symbol>
    <symbol id="vk">
        <g>
            <path d="M22.316,1.684C20.632,0,17.921,0,12.5,0h-1C6.079,0,3.368,0,1.684,1.684C0,3.368,0,6.079,0,11.5v1   c0,5.421,0,8.131,1.684,9.816S6.079,24,11.5,24h1c5.421,0,8.131,0,9.816-1.684C24,20.632,24,17.921,24,12.5v-1   C24,6.079,24,3.368,22.316,1.684z M19.503,17h-1.75c-0.667,0-0.863-0.532-2.05-1.719c-1.039-1.001-1.484-1.131-1.743-1.131   c-0.353,0-0.458,0.1-0.458,0.6v1.569c0,0.43-0.137,0.681-1.25,0.681c-1.854,0-3.892-1.126-5.339-3.202   c-2.17-3.041-2.763-5.34-2.763-5.803c0-0.26,0.1-0.495,0.6-0.495h1.751c0.447,0,0.615,0.196,0.783,0.68   c0.856,2.493,2.3,4.672,2.893,4.672c0.222,0,0.324-0.103,0.324-0.667V9.608c-0.065-1.186-0.696-1.284-0.696-1.706   c0-0.195,0.167-0.402,0.445-0.402h2.751c0.371,0,0.5,0.198,0.5,0.643v3.467c0,0.37,0.161,0.5,0.272,0.5   c0.223,0,0.408-0.13,0.816-0.538c1.261-1.409,2.151-3.578,2.151-3.578c0.112-0.26,0.316-0.495,0.762-0.495h1.75   c0.529,0,0.641,0.272,0.529,0.643c-0.223,1.02-2.355,4.023-2.355,4.023c-0.186,0.297-0.26,0.445,0,0.779   c0.186,0.26,0.797,0.779,1.205,1.261c0.752,0.846,1.319,1.559,1.477,2.051C20.254,16.75,20.003,17,19.503,17z"/>
        </g>
    </symbol>
    <symbol id="pinterest">
        <g>
            <path d="M12.01,0C5.388,0,0.02,5.368,0.02,11.99c0,5.082,3.158,9.424,7.618,11.171c-0.109-0.947-0.197-2.408,0.039-3.444   c0.217-0.938,1.401-5.961,1.401-5.961s-0.355-0.72-0.355-1.776c0-1.668,0.967-2.911,2.171-2.911c1.026,0,1.52,0.77,1.52,1.688   c0,1.026-0.651,2.566-0.997,3.997c-0.286,1.194,0.602,2.171,1.776,2.171c2.132,0,3.77-2.25,3.77-5.487   c0-2.872-2.062-4.875-5.013-4.875c-3.414,0-5.418,2.556-5.418,5.201c0,1.026,0.395,2.132,0.888,2.734   C7.52,14.615,7.53,14.724,7.5,14.842c-0.089,0.375-0.296,1.194-0.336,1.362c-0.049,0.217-0.178,0.266-0.405,0.158   c-1.5-0.701-2.438-2.882-2.438-4.648c0-3.78,2.743-7.253,7.924-7.253c4.155,0,7.391,2.961,7.391,6.928   c0,4.135-2.605,7.461-6.217,7.461c-1.214,0-2.359-0.632-2.743-1.382c0,0-0.602,2.289-0.75,2.852   c-0.266,1.046-0.997,2.349-1.49,3.148C9.562,23.812,10.747,24,11.99,24c6.622,0,11.99-5.368,11.99-11.99C24,5.368,18.632,0,12.01,0   z"/>
        </g>
    </symbol>
</svg>
