<?xml version="1.0" ?><!DOCTYPE svg  PUBLIC '-//W3C//DTD SVG 1.1//EN'  'http://www.w3.org/Graphics/SVG/1.1/DTD/svg11.dtd'><svg enable-background="new 0 0 70 70" id="Layer_1" version="1.1" viewBox="0 0 70 70" xml:space="preserve" xmlns="http://www.w3.org/2000/svg" xmlns:xlink="http://www.w3.org/1999/xlink"><g><path d="M22.2509766,61.0834961c-0.0234375,0-0.046875-0.0009766-0.0703125-0.003418   c-7.7792969-0.7216797-7.6069336-6.1176758-7.5039063-9.3422852c0.0146484-0.4521484,0.0288086-0.8774414,0.0209961-1.2612305   l-0.7568359-38.65625c-0.0415039-2.1254883,0.0522461-4.5205078,1.6962891-6.0444336   c1.3823242-1.28125,3.3100586-1.4331055,5.1655273-1.4794922c9.9287109-0.2421875,19.980957,0.0073242,29.8779297,0.7441406   c1.0356445,0.0771484,2.4545898,0.1826172,3.5673828,0.9785156c1.824707,1.3051758,2.0581055,3.6679688,2.0380859,6.0273438   l-0.3432617,40.730957c-0.015625,1.840332-0.1401367,3.7475586-1.4448242,5.0708008   c-1.3271484,1.3461914-3.3823242,1.4804688-4.7426758,1.5698242l-19.5732422,1.2792969   c-0.4125977,0.0195313-0.7705078-0.2856445-0.7973633-0.699707c-0.0268555-0.4130859,0.2861328-0.7700195,0.699707-0.7973633   l19.5732422-1.2792969c1.4995117-0.0981445,2.9165039-0.2583008,3.7719727-1.1254883   c0.9121094-0.925293,0.9995117-2.4345703,1.0131836-4.0307617l0.3432617-40.730957   c0.0166016-1.9545898-0.1430664-3.8881836-1.4106445-4.7949219c-0.7128906-0.5092773-1.6923828-0.6196289-2.8061523-0.7021484   c-9.8476563-0.7338867-19.8481445-0.9819336-29.7294922-0.7402344C19.2060547,5.8369141,17.65625,5.949707,16.6567383,6.8764648   c-1.1889648,1.1015625-1.2529297,3.0317383-1.2158203,4.9145508l0.7568359,38.65625   c0.0078125,0.4072266-0.0063477,0.8588867-0.0214844,1.3388672c-0.1083984,3.3789063-0.230957,7.2089844,6.1430664,7.8007813   c0.4125977,0.0380859,0.7158203,0.4033203,0.6772461,0.815918C22.9609375,60.7915039,22.6337891,61.0834961,22.2509766,61.0834961z   " fill="#373684"/><path d="M23.3193359,25.9121094c-0.5830078,0-1.9482422,0-2.6904297-0.9858398   c-0.3085938-0.4116211-0.425293-0.8779297-0.5053711-1.3212891c-0.2480469-1.3652344-0.6220703-3.4296875,0.487793-4.6508789   c0.3554688-0.3911133,0.7978516-0.8774414,11.1245117-0.8774414c4.8730469,0,10.4033203,0.1113281,14.0629883,0.1845703   c0.7700195,0.015625,2.0585938,0.0410156,2.9287109,0.8745117c0.8984375,0.8608398,0.9536133,2.1977539,0.9868164,2.9970703   c0.0288086,0.706543,0.0893555,2.1767578-0.9462891,2.9912109c-0.6865234,0.5395508-1.5698242,0.5483398-2.1542969,0.5541992   L23.3193359,25.9121094z M21.6674805,20.027832c-0.5390625,0.7119141-0.2456055,2.3305664-0.0683594,3.3100586   c0.0473633,0.2617188,0.1079102,0.5258789,0.2290039,0.6870117c0.2583008,0.3432617,0.9326172,0.387207,1.4912109,0.387207   l0.1240234-0.0004883l23.1557617-0.2333984c0.5234375-0.0053711,0.9785156-0.0263672,1.2421875-0.2338867   c0.3808594-0.2993164,0.402832-1.0527344,0.3740234-1.75c-0.0332031-0.8076172-0.0986328-1.5664063-0.5253906-1.9755859   c-0.4125977-0.3950195-1.175293-0.4428711-1.9213867-0.4575195C42.1152344,19.6875,36.59375,19.5766602,31.7358398,19.5766602   C23.8706055,19.5766602,22.0722656,19.8759766,21.6674805,20.027832z" fill="#373684"/><path d="M23.3417969,65.9995117c-0.15625,0-0.315918-0.027832-0.4794922-0.0888672   c-0.909668-0.3413086-0.9804688-1.6708984-0.8671875-6.7646484c0.0297852-1.3549805,0.0581055-2.6342773,0.0263672-3.5791016   c-0.0141602-0.4140625,0.3100586-0.7612305,0.7241211-0.7749023c0.4121094-0.0117188,0.7607422,0.3100586,0.7749023,0.7241211   c0.0332031,0.9868164,0.0043945,2.2866211-0.0258789,3.6630859c-0.0385742,1.7358398-0.0942383,4.2460938,0.0668945,5.2133789   c0.2475586-0.2075195,0.6396484-0.6430664,0.875-0.9052734c0.6333008-0.7050781,1.1757813-1.3095703,1.8964844-1.2553711   c0.6123047,0.0498047,1.0517578,0.6069336,1.6079102,1.3115234c0.121582,0.1538086,0.2861328,0.3623047,0.4384766,0.5375977   c0.2714844-1.4091797,0.2763672-5.237793-0.0229492-8.7675781c-0.034668-0.4130859,0.2714844-0.7758789,0.684082-0.8110352   c0.4067383-0.0336914,0.7753906,0.2705078,0.8110352,0.684082c0.3134766,3.7041016,0.6186523,10.0087891-0.8632813,10.621582   c-0.8789063,0.3642578-1.5644531-0.4990234-2.2246094-1.3349609c-0.1552734-0.1972656-0.3896484-0.4936523-0.5556641-0.6640625   c-0.1870117,0.1591797-0.4604492,0.4633789-0.65625,0.6811523C24.9370117,65.1738281,24.1953125,65.9995117,23.3417969,65.9995117z   " fill="#373684"/><path d="M20.6708984,55.6674805c-0.6835938,0-1.2436523-0.0058594-1.6538086-0.019043   c-0.4140625-0.0131836-0.7387695-0.359375-0.7255859-0.7734375c0.0126953-0.4145508,0.362793-0.7490234,0.7734375-0.7255859   c2.2709961,0.0727539,9.3466797-0.081543,16.1894531-0.230957c6.8623047-0.1494141,13.9580078-0.3046875,16.2695313-0.2304688   c0.4140625,0.0131836,0.7387695,0.359375,0.7255859,0.7734375c-0.0126953,0.4140625-0.375,0.7299805-0.7734375,0.7255859   c-2.2700195-0.0712891-9.3461914,0.0820313-16.1894531,0.230957   C29.6420898,55.5410156,23.8388672,55.6674805,20.6708984,55.6674805z" fill="#373684"/><path d="M15.5620117,54.1040039c-0.1088867,0-0.2197266-0.0239258-0.324707-0.0742188   c-0.3730469-0.1796875-0.5302734-0.6279297-0.3505859-1.0009766c1.9360352-4.0244141,11.1103516-3.7133789,19.2041016-3.4394531   c1.7573242,0.0595703,3.4169922,0.1157227,4.8696289,0.1191406c1.5141602,0.0014648,3.0917969-0.0322266,4.6791992-0.0688477   c3.7124023-0.0864258,7.5522461-0.1738281,11.0732422,0.2407227c0.4111328,0.0483398,0.7055664,0.4208984,0.6567383,0.8325195   c-0.0478516,0.4111328-0.4189453,0.7104492-0.8325195,0.6567383c-3.4140625-0.4008789-7.2021484-0.3149414-10.862793-0.2304688   c-1.6005859,0.0371094-3.1806641,0.0683594-4.7177734,0.0693359c-1.4760742-0.0039063-3.1474609-0.0600586-4.9165039-0.1201172   c-6.8740234-0.2324219-16.2895508-0.5512695-17.8017578,2.5908203   C16.109375,53.9477539,15.8413086,54.1040039,15.5620117,54.1040039z" fill="#373684"/><path d="M14.9204102,12.7558594c-0.2661133,0-0.5234375-0.1416016-0.659668-0.3920898   C14.0629883,12,14.1977539,11.5444336,14.5620117,11.3466797c0.456543-0.2480469,1.1044922-0.5800781,1.7519531-0.9116211   c0.6298828-0.3227539,1.2592773-0.6445313,1.7036133-0.8857422c0.3618164-0.1972656,0.8193359-0.0629883,1.0166016,0.3017578   c0.1977539,0.3637695,0.0625,0.8193359-0.3017578,1.0166016c-0.4521484,0.2456055-1.0927734,0.5737305-1.734375,0.9023438   c-0.6357422,0.3256836-1.2719727,0.6513672-1.7202148,0.8950195   C15.1640625,12.7265625,15.0415039,12.7558594,14.9204102,12.7558594z" fill="#373684"/><path d="M15.128418,16.1708984c-0.2304688,0-0.4575195-0.105957-0.6044922-0.3056641   c-0.2456055-0.3334961-0.1743164-0.8027344,0.159668-1.0483398c0.9946289-0.7319336,2.1533203-1.2734375,3.3520508-1.565918   c0.3999023-0.1010742,0.8081055,0.1484375,0.90625,0.5507813s-0.1484375,0.8081055-0.5507813,0.90625   c-1.0073242,0.2460938-1.9824219,0.7016602-2.8188477,1.3168945C15.4384766,16.1235352,15.2827148,16.1708984,15.128418,16.1708984   z" fill="#373684"/><path d="M15.1245117,19.9145508c-0.3134766,0-0.605957-0.1982422-0.7109375-0.5117188   c-0.1318359-0.3930664,0.0800781-0.8178711,0.4726563-0.9492188l3.0356445-1.0175781   c0.3925781-0.1337891,0.8178711,0.0795898,0.9492188,0.4726563c0.1318359,0.3925781-0.0795898,0.8178711-0.4726563,0.9492188   l-3.0356445,1.0175781C15.2836914,19.9023438,15.203125,19.9145508,15.1245117,19.9145508z" fill="#373684"/><path d="M15.2280273,24.3022461c-0.3032227,0-0.5888672-0.1850586-0.7021484-0.4863281   c-0.1455078-0.3876953,0.0507813-0.8198242,0.4384766-0.9658203l3.1455078-1.1811523   c0.3876953-0.1445313,0.8203125,0.0507813,0.9658203,0.4384766s-0.0507813,0.8203125-0.4384766,0.9658203l-3.1455078,1.1811523   C15.4047852,24.2871094,15.315918,24.3022461,15.2280273,24.3022461z" fill="#373684"/><path d="M15.3129883,28.8037109c-0.2353516,0-0.4677734-0.1108398-0.6137695-0.3183594   c-0.2382813-0.3383789-0.1572266-0.8061523,0.1816406-1.0449219c1.1835938-0.8334961,2.4838867-1.4765625,3.8637695-1.9106445   c0.3969727-0.1230469,0.8164063,0.0957031,0.9404297,0.4902344c0.1245117,0.3950195-0.0952148,0.8164063-0.4902344,0.9404297   c-1.2324219,0.3876953-2.3930664,0.9619141-3.4506836,1.706543C15.6132813,28.7592773,15.4624023,28.8037109,15.3129883,28.8037109   z" fill="#373684"/><path d="M15.6323242,32.2905273c-0.2358398,0-0.487793-0.046875-0.7299805-0.1845703   c-0.3603516-0.2041016-0.4873047-0.6616211-0.2827148-1.0219727c0.2011719-0.3549805,0.6494141-0.4819336,1.0048828-0.2924805   c0.0478516,0.0053711,0.1503906-0.0117188,0.3994141-0.0957031l2.8798828-0.9755859   c0.3959961-0.1318359,0.8183594,0.0776367,0.9511719,0.4697266c0.1328125,0.3925781-0.0776367,0.8183594-0.4697266,0.9511719   l-2.8803711,0.9755859C16.3105469,32.1821289,15.9897461,32.2905273,15.6323242,32.2905273z" fill="#373684"/><path d="M15.3359375,35.9213867c-0.2890625,0-0.5649414-0.1679688-0.6879883-0.4501953   c-0.1655273-0.3793945,0.0078125-0.8212891,0.3876953-0.9873047l3.5400391-1.5454102   c0.3793945-0.1655273,0.8217773,0.0073242,0.9873047,0.3876953c0.1655273,0.3793945-0.0078125,0.8212891-0.3876953,0.9873047   l-3.5400391,1.5454102C15.5375977,35.9013672,15.4360352,35.9213867,15.3359375,35.9213867z" fill="#373684"/><path d="M15.4052734,40.4785156c-0.2797852,0-0.5483398-0.1572266-0.6772461-0.4262695   c-0.1787109-0.3740234-0.0205078-0.8217773,0.3530273-1.0004883l3.8515625-1.8408203   c0.3720703-0.1801758,0.8208008-0.0205078,1,0.3535156c0.1787109,0.3735352,0.0205078,0.8212891-0.3535156,1l-3.8505859,1.8408203   C15.6240234,40.4550781,15.5136719,40.4785156,15.4052734,40.4785156z" fill="#373684"/><path d="M15.5571289,44.3676758c-0.2900391,0-0.565918-0.168457-0.6884766-0.4511719   c-0.1650391-0.3798828,0.0092773-0.8217773,0.3891602-0.9868164l4.1611328-1.8051758   c0.3793945-0.1645508,0.8212891,0.0097656,0.9863281,0.3896484s-0.0092773,0.8217773-0.3896484,0.9863281l-4.1601563,1.8051758   C15.7583008,44.3476563,15.6567383,44.3676758,15.5571289,44.3676758z" fill="#373684"/><path d="M15.5366211,48.4414063c-0.3320313,0-0.6357422-0.222168-0.7246094-0.5585938   c-0.105957-0.4003906,0.1333008-0.8105469,0.5336914-0.9165039c1.453125-0.3837891,2.8256836-1.0004883,4.0791016-1.8325195   c0.34375-0.2290039,0.8100586-0.1352539,1.0395508,0.2104492c0.2290039,0.3447266,0.1347656,0.8105469-0.2104492,1.0395508   c-1.3901367,0.9228516-2.9125977,1.6069336-4.5253906,2.0327148   C15.6645508,48.4335938,15.6000977,48.4414063,15.5366211,48.4414063z" fill="#373684"/></g></svg>