<svg width="20" height="20" viewBox="0 0 20 20" fill="none" xmlns="http://www.w3.org/2000/svg">
<path d="M17.4304 6.65282C17.0146 2.91893 13.8378 0 9.99584 0C6.15385 0 2.97713 2.91893 2.56133 6.65282H0L1.59667 17.8129C1.6841 18.4067 1.98125 18.9495 2.43431 19.343C2.88738 19.7366 3.4664 19.9549 4.06653 19.9585H15.9335C16.5336 19.9549 17.1126 19.7366 17.5657 19.343C18.0187 18.9495 18.3159 18.4067 18.4033 17.8129L20 6.65282H17.4387H17.4304ZM9.99584 1.66321C12.9231 1.66321 15.343 3.83369 15.7505 6.65282H4.24116C4.64865 3.83369 7.06861 1.66321 9.99584 1.66321ZM16.7484 17.5801C16.6902 17.9876 16.3326 18.2953 15.9252 18.2953H4.06653C3.65904 18.2953 3.30146 17.9876 3.24324 17.5801L1.921 8.31602H18.0707L16.7484 17.5801Z" fill="#B22222"/>
<path d="M16.7484 17.5801C16.6902 17.9876 16.3326 18.2953 15.9252 18.2953H4.06653C3.65904 18.2953 3.30146 17.9876 3.24324 17.5801L1.921 8.31602H18.0707L16.7484 17.5801Z" fill="#F9F9F9"/>
</svg>
