<svg width="24" height="24" viewBox="0 0 24 24" fill="none" xmlns="http://www.w3.org/2000/svg">
<path d="M13.2404 13.8541C12.8732 14.0994 12.4416 14.2303 12 14.2303C11.4079 14.2303 10.84 13.9951 10.4213 13.5764C10.0027 13.1577 9.76745 12.5899 9.76745 11.9978C9.76745 11.5562 9.89839 11.1246 10.1437 10.7574C10.389 10.3903 10.7377 10.1041 11.1456 9.93515C11.5536 9.76617 12.0025 9.72196 12.4356 9.80811C12.8686 9.89425 13.2664 10.1069 13.5787 10.4191C13.8909 10.7313 14.1035 11.1291 14.1897 11.5622C14.2758 11.9953 14.2316 12.4442 14.0626 12.8521C13.8936 13.2601 13.6075 13.6088 13.2404 13.8541Z" fill="white"/>
<path fill-rule="evenodd" clip-rule="evenodd" d="M12 6.51349C13.7872 6.51349 13.9981 6.52018 14.7036 6.55256C15.1284 6.55744 15.549 6.63561 15.9472 6.78363C16.2357 6.89477 16.4977 7.06513 16.7163 7.28374C16.9349 7.50235 17.1052 7.76434 17.2164 8.05284C17.3644 8.45096 17.4426 8.87165 17.4474 9.29637C17.4798 10.0019 17.4865 10.2128 17.4865 12C17.4865 13.7872 17.4798 13.9981 17.4474 14.7036C17.4426 15.1283 17.3644 15.549 17.2164 15.9472C17.1052 16.2357 16.9349 16.4976 16.7163 16.7163C16.4977 16.9349 16.2357 17.1052 15.9472 17.2164C15.549 17.3644 15.1284 17.4426 14.7036 17.4474C13.9981 17.4798 13.7872 17.4865 12 17.4865C10.2128 17.4865 10.0019 17.4798 9.29638 17.4474C8.87166 17.4426 8.45097 17.3644 8.05285 17.2164C7.76435 17.1052 7.50236 16.9349 7.28375 16.7163C7.06514 16.4976 6.89477 16.2357 6.78363 15.9472C6.63562 15.549 6.55745 15.1283 6.55257 14.7036C6.52019 13.9981 6.5135 13.7872 6.5135 12C6.5135 10.2128 6.52019 10.0019 6.55257 9.29637C6.55745 8.87165 6.63562 8.45096 6.78363 8.05284C6.89477 7.76434 7.06514 7.50235 7.28375 7.28374C7.50236 7.06513 7.76435 6.89477 8.05285 6.78363C8.45097 6.63561 8.87166 6.55744 9.29638 6.55256C10.0019 6.52018 10.2128 6.51349 12 6.51349ZM13.9095 9.14222C13.3443 8.76455 12.6798 8.56298 12 8.56298C11.0885 8.56298 10.2142 8.92509 9.56966 9.56966C9.25051 9.88881 8.99734 10.2677 8.82461 10.6847C8.65188 11.1017 8.56298 11.5486 8.56298 12C8.56298 12.6798 8.76456 13.3443 9.14223 13.9095C9.51989 14.4747 10.0567 14.9153 10.6847 15.1754C11.3127 15.4355 12.0038 15.5036 12.6705 15.371C13.3373 15.2384 13.9497 14.911 14.4303 14.4303C14.911 13.9497 15.2384 13.3372 15.371 12.6705C15.5036 12.0038 15.4355 11.3127 15.1754 10.6847C14.9153 10.0567 14.4747 9.51988 13.9095 9.14222ZM16.2404 8.87443C16.3287 8.74226 16.3758 8.58687 16.3758 8.42791C16.3758 8.21475 16.2911 8.01032 16.1404 7.85959C15.9897 7.70886 15.7853 7.62418 15.5721 7.62418C15.4131 7.62418 15.2577 7.67132 15.1256 7.75964C14.9934 7.84795 14.8904 7.97347 14.8296 8.12034C14.7687 8.2672 14.7528 8.4288 14.7838 8.5847C14.8148 8.74061 14.8914 8.88382 15.0038 8.99622C15.1162 9.10862 15.2594 9.18517 15.4153 9.21618C15.5712 9.24719 15.7328 9.23128 15.8797 9.17045C16.0265 9.10962 16.1521 9.0066 16.2404 8.87443Z" fill="white"/>
<path fill-rule="evenodd" clip-rule="evenodd" d="M0 11.52V12.48C0 17.9107 0.00223091 20.6266 1.6867 22.3133C3.37116 24 6.0893 24 11.52 24H12.48C17.9107 24 20.6266 23.9978 22.3133 22.3133C24 20.6288 24 17.9107 24 12.48V11.52C24 6.0893 23.9978 3.3734 22.3133 1.6867C20.6288 0 17.9107 0 12.48 0H11.52C6.0893 0 3.37339 0.0022325 1.6867 1.6867C0 3.37116 0 6.08931 0 11.52ZM14.7594 5.34809C14.045 5.31572 13.8173 5.30791 12 5.30791C10.1827 5.30791 9.95498 5.31572 9.24056 5.34809C8.68546 5.35936 8.13628 5.46467 7.61638 5.65953C7.17174 5.83114 6.76793 6.09389 6.43092 6.43091C6.0939 6.76792 5.83115 7.17173 5.65954 7.61637C5.46467 8.13627 5.35937 8.68545 5.3481 9.24056C5.31573 9.95498 5.30791 10.1827 5.30791 12C5.30791 13.8173 5.31573 14.045 5.3481 14.7594C5.35937 15.3145 5.46467 15.8637 5.65954 16.3836C5.83115 16.8283 6.0939 17.2321 6.43092 17.5691C6.76793 17.9061 7.17174 18.1689 7.61638 18.3405C8.13628 18.5353 8.68546 18.6406 9.24056 18.6519C9.95498 18.6843 10.1827 18.6921 12 18.6921C13.8173 18.6921 14.045 18.6843 14.7594 18.6519C15.3146 18.6406 15.8637 18.5353 16.3836 18.3405C16.8283 18.1689 17.2321 17.9061 17.5691 17.5691C17.9061 17.2321 18.1689 16.8283 18.3405 16.3836C18.5353 15.8637 18.6406 15.3145 18.6519 14.7594C18.6843 14.045 18.6921 13.8173 18.6921 12C18.6921 10.1827 18.6843 9.95498 18.6519 9.24056C18.6406 8.68545 18.5353 8.13627 18.3405 7.61637C18.1689 7.17173 17.9061 6.76792 17.5691 6.43091C17.2321 6.09389 16.8283 5.83114 16.3836 5.65953C15.8637 5.46467 15.3146 5.35936 14.7594 5.34809Z" fill="white"/>
</svg>
